<svg width="31" height="30" viewBox="0 0 31 30" fill="none" xmlns="http://www.w3.org/2000/svg">
<path fill-rule="evenodd" clip-rule="evenodd" d="M15.9688 30C24.253 30 30.9688 23.2842 30.9688 15C30.9688 6.7158 24.253 0 15.9688 0C7.68455 0 0.96875 6.7158 0.96875 15C0.96875 23.2842 7.68455 30 15.9688 30ZM22.5618 9.5832C22.6776 8.2692 21.2899 8.8104 21.2899 8.8104C20.2654 9.2346 19.2088 9.6654 18.1408 10.101C14.8288 11.4519 11.4076 12.8475 8.49305 14.2212C6.91265 14.8008 7.83785 15.3804 7.83785 15.3804L10.3432 16.1535C11.4997 16.5015 12.1162 16.1148 12.1162 16.1148L17.5126 12.4434C19.4398 11.1294 18.9772 12.2115 18.5146 12.6753L14.4676 16.5399C13.8508 17.0811 14.1592 17.5449 14.4289 17.7768C15.1939 18.4515 17.0749 19.686 17.896 20.2248C18.1096 20.3649 18.2515 20.4582 18.2836 20.4822C18.4762 20.6367 19.5169 21.3324 20.2108 21.1779C20.9047 21.0231 20.9818 20.1342 20.9818 20.1342L21.9067 14.0664C22.0453 13.0131 22.2046 12.0006 22.3318 11.1918C22.4518 10.428 22.5432 9.8463 22.5618 9.5832Z" fill="black"/>
</svg>
