<svg width="31" height="30" viewBox="0 0 31 30" fill="none" xmlns="http://www.w3.org/2000/svg">
<path fill-rule="evenodd" clip-rule="evenodd" d="M15.9688 30C24.253 30 30.9688 23.2843 30.9688 15C30.9688 6.71574 24.253 0 15.9688 0C7.68449 0 0.96875 6.71574 0.96875 15C0.96875 23.2843 7.68449 30 15.9688 30ZM21.8975 8.69784C20.3539 7.1523 18.3009 6.30081 16.1137 6.3C11.6072 6.3 7.93913 9.96756 7.93751 14.4757C7.93697 15.9167 8.31344 17.3234 9.02879 18.5631L7.86875 22.8L12.2031 21.6632C13.3972 22.3147 14.742 22.6579 16.1102 22.6584H16.1134C20.6196 22.6584 24.2877 18.9903 24.2896 14.4825C24.291 12.2975 23.4414 10.2434 21.8975 8.69784ZM19.8413 16.1876C19.637 16.0853 18.6327 15.5912 18.4453 15.5231C18.2581 15.4548 18.1217 15.4207 17.9856 15.6254C17.8495 15.83 17.458 16.2899 17.3387 16.4264C17.2195 16.5628 17.1003 16.5797 16.8962 16.4774C16.8628 16.4606 16.8172 16.4409 16.761 16.4165C16.4733 16.2917 15.9059 16.0457 15.2533 15.4633C14.646 14.9215 14.2359 14.2525 14.1167 14.0482C13.9975 13.8436 14.1039 13.7331 14.2062 13.6313C14.2675 13.5701 14.338 13.4843 14.4084 13.3986C14.4435 13.3558 14.4786 13.313 14.5126 13.2734C14.5991 13.1723 14.6368 13.0955 14.6878 12.9915C14.697 12.9728 14.7065 12.9533 14.7169 12.9326C14.7851 12.7962 14.751 12.677 14.7 12.5747C14.6659 12.5063 14.4723 12.035 14.2967 11.6077C14.2094 11.3952 14.1266 11.1936 14.0701 11.0578C13.9236 10.7061 13.7752 10.707 13.6561 10.7077C13.6403 10.7078 13.625 10.7079 13.6103 10.7072C13.4914 10.7012 13.355 10.7001 13.2188 10.7001C13.0827 10.7001 12.8614 10.7511 12.674 10.9557C12.6619 10.9689 12.6484 10.9833 12.6338 10.999C12.4209 11.2263 11.959 11.7194 11.959 12.6601C11.959 13.6632 12.6874 14.6324 12.7925 14.7723L12.7933 14.7733C12.7999 14.7822 12.8118 14.7993 12.8287 14.8236C13.0726 15.1735 14.3672 17.0307 16.2832 17.8581C16.7707 18.0687 17.151 18.1943 17.4478 18.2884C17.9373 18.4439 18.3826 18.422 18.7348 18.3694C19.1273 18.3107 19.9434 17.8753 20.1136 17.3981C20.2838 16.921 20.2838 16.5118 20.2328 16.4266C20.1917 16.3577 20.0951 16.311 19.952 16.2419C19.9177 16.2253 19.8808 16.2074 19.8413 16.1876Z" fill="black"/>
</svg>
