<svg width="36" height="36" viewBox="0 0 36 36" fill="none" xmlns="http://www.w3.org/2000/svg">
<g clip-path="url(#clip0_470_1737)">
<path fill-rule="evenodd" clip-rule="evenodd" d="M35.971 24.5998V24.4604C35.971 23.5791 35.3188 22.8624 34.4459 22.7399L34.0566 22.6853V23.9326C34.0566 24.2987 34.3578 24.5998 34.7238 24.5998H35.971Z" fill="#F50E30"/>
<path fill-rule="evenodd" clip-rule="evenodd" d="M3.95519 29.4959C3.50898 29.4959 3.12049 29.1081 3.12306 28.6612L3.15171 23.5953V16.0358C3.15171 15.4631 3.61885 14.9958 4.19162 14.9958H15.0012C15.1661 15.5561 15.3831 16.1014 15.6507 16.6253L15.8734 17.0613H24.1133L25.8947 21.4946L33.2572 22.5282V23.933C33.2572 24.7406 33.9168 25.4001 34.7243 25.4001H36.0003V28.7718C36.0003 29.1577 35.6649 29.4959 35.2783 29.4959H34.2932C34.2932 27.4566 32.6395 25.803 30.6002 25.803C28.561 25.803 26.9073 27.4566 26.9073 29.4959H12.1835C12.1835 27.4566 10.5298 25.803 8.4906 25.803C6.45131 25.803 4.79761 27.4567 4.79761 29.4959H3.95519ZM17.6601 24.3977C17.1331 24.3977 17.1331 25.1991 17.6601 25.1991H18.8538C19.3808 25.1991 19.3808 24.3977 18.8538 24.3977H17.6601ZM6.87361 22.702V17.6725H10.8931V22.702H6.87361ZM12.2954 17.6725H15.814V22.702H12.2954V17.6725ZM17.2163 17.6725H21.0354L22.598 22.702H17.2163V17.6725Z" fill="#F50E30"/>
<path fill-rule="evenodd" clip-rule="evenodd" d="M2.32165 19.2117H1.59142C0.716193 19.2117 0 19.9279 0 20.8032V23.8412C0 24.7164 0.716193 25.4326 1.59142 25.4326H2.32165V19.2117Z" fill="#F50E30"/>
<path fill-rule="evenodd" clip-rule="evenodd" d="M8.49066 26.6033C10.0884 26.6033 11.3837 27.8985 11.3837 29.4963C11.3837 31.094 10.0884 32.3893 8.49066 32.3893C6.89285 32.3893 5.59766 31.094 5.59766 29.4963C5.59766 27.8985 6.89285 26.6033 8.49066 26.6033ZM8.49066 28.5316C9.02349 28.5316 9.45533 28.9635 9.45533 29.4963C9.45533 30.0291 9.02349 30.461 8.49066 30.461C7.95784 30.461 7.52591 30.0291 7.52591 29.4963C7.52591 28.9635 7.95784 28.5316 8.49066 28.5316Z" fill="#F50E30"/>
<path fill-rule="evenodd" clip-rule="evenodd" d="M30.6 26.6033C32.1978 26.6033 33.493 27.8985 33.493 29.4963C33.493 31.094 32.1978 32.3893 30.6 32.3893C29.0023 32.3893 27.707 31.094 27.707 29.4963C27.707 27.8985 29.0023 26.6033 30.6 26.6033ZM30.6 28.5315C31.1329 28.5315 31.5648 28.9635 31.5648 29.4963C31.5648 30.0291 31.1329 30.461 30.6 30.461C30.0673 30.461 29.6354 30.0291 29.6354 29.4963C29.6354 28.9635 30.0673 28.5315 30.6 28.5315Z" fill="#F50E30"/>
<path fill-rule="evenodd" clip-rule="evenodd" d="M24.5199 3.61158C25.815 3.67013 27.0364 4.01187 28.1237 4.576L26.9822 6.55334C26.8725 6.74401 26.9383 6.98742 27.129 7.09704C27.3197 7.20658 27.5632 7.14089 27.6727 6.95022L28.8131 4.97496C29.8716 5.65378 30.7734 6.5555 31.4524 7.61393L29.477 8.7544C29.2862 8.86403 29.2205 9.10743 29.33 9.29811C29.4397 9.48878 29.6831 9.55456 29.8738 9.44502L31.8514 8.30321C32.4158 9.39046 32.7575 10.6119 32.816 11.9072H30.5334C30.3125 11.9072 30.1334 12.0863 30.1334 12.3072C30.1334 12.5281 30.3125 12.7072 30.5334 12.7072H32.816C32.7583 13.9827 32.426 15.1865 31.877 16.2613H16.3629C15.8139 15.1865 15.4815 13.9827 15.4238 12.7072H17.7064C17.9273 12.7072 18.1065 12.5281 18.1065 12.3072C18.1065 12.0863 17.9273 11.9072 17.7064 11.9072H15.4238C15.4825 10.612 15.824 9.39054 16.3883 8.30313L18.3661 9.44502C18.5568 9.55456 18.8002 9.48887 18.9098 9.29819C19.0194 9.10743 18.9536 8.86403 18.763 8.7544L16.7872 7.61376C17.4662 6.55525 18.368 5.65336 19.4265 4.97438L20.5672 6.95014C20.6768 7.14081 20.9203 7.20658 21.1109 7.09704C21.3016 6.98742 21.3673 6.74401 21.2578 6.55326L20.1161 4.57592C21.2035 4.01162 22.4247 3.66971 23.7199 3.61108V5.89378C23.7199 6.1146 23.8991 6.29374 24.12 6.29374C24.3409 6.29374 24.5199 6.1146 24.5199 5.89378V3.61158ZM23.0787 12.9651L22.6731 8.13645L24.7362 12.5207C25.0784 12.729 25.3069 13.1055 25.3069 13.5355C25.3069 14.1911 24.7755 14.7225 24.12 14.7225C23.4643 14.7225 22.9329 14.1911 22.9329 13.5355C22.9329 13.3288 22.9857 13.1344 23.0787 12.9651Z" fill="#F50E30"/>
</g>
<defs>
<clipPath id="clip0_470_1737">
<rect width="36" height="36" fill="white"/>
</clipPath>
</defs>
</svg>
