<svg width="60" height="60" viewBox="0 0 60 60" fill="none" xmlns="http://www.w3.org/2000/svg">
<g clip-path="url(#clip0_601_536)">
<path d="M59.9678 26.2056L59.9649 23.5913C59.9615 21.1192 57.9257 19.1028 55.4266 19.0963C55.4225 19.0963 55.4186 19.0963 55.4146 19.0963C54.1961 19.0963 53.0536 19.5673 52.1969 20.423C51.3504 21.2684 50.8851 22.3902 50.8867 23.5813L50.9209 54.088C50.9213 54.4337 51.0236 54.7717 51.2151 55.0596L53.9793 59.2156C54.3041 59.704 54.8513 59.9981 55.4379 59.9998C55.4396 59.9998 55.4412 59.9998 55.443 59.9998C56.0276 59.9998 56.5743 59.709 56.901 59.2238L59.6993 55.0678C59.895 54.7772 59.9995 54.4346 59.9991 54.084L59.9678 26.2056ZM54.4025 23.5772C54.402 23.3273 54.5011 23.0904 54.6814 22.9104C54.8741 22.7179 55.1345 22.6119 55.4148 22.6119C55.4158 22.6119 55.4167 22.6119 55.4177 22.6119C55.9858 22.6135 56.4486 23.0549 56.4494 23.5957L56.4507 24.7728H54.4038L54.4025 23.5772ZM54.4076 28.2884H56.4545L56.476 47.3895H54.4291L54.4076 28.2884ZM55.4519 55.0815L54.436 53.5541L54.4331 50.9051H56.48L56.4829 53.5505L55.4519 55.0815Z" fill="#F50E30"/>
<path d="M41.5691 0H5.27344C2.36566 0 0 2.36566 0 5.27344V54.7266C0 57.6343 2.36566 60 5.27344 60H41.5691C44.4769 60 46.8425 57.6343 46.8425 54.7266V5.27344C46.8425 2.36566 44.4769 0 41.5691 0ZM43.3269 54.7266C43.3269 55.6958 42.5384 56.4844 41.5691 56.4844H5.27344C4.30418 56.4844 3.51562 55.6958 3.51562 54.7266V5.27344C3.51562 4.30418 4.30418 3.51562 5.27344 3.51562H41.5691C42.5384 3.51562 43.3269 4.30418 43.3269 5.27344V54.7266Z" fill="#F50E30"/>
<path d="M36.8582 9.92346H9.99023C9.01945 9.92346 8.23242 10.7105 8.23242 11.6813C8.23242 12.6521 9.01945 13.4391 9.99023 13.4391H36.8582C37.8289 13.4391 38.616 12.6521 38.616 11.6813C38.616 10.7105 37.8289 9.92346 36.8582 9.92346Z" fill="#F50E30"/>
<path d="M36.8582 17.5058H9.99023C9.01945 17.5058 8.23242 18.2928 8.23242 19.2636C8.23242 20.2344 9.01945 21.0214 9.99023 21.0214H36.8582C37.8289 21.0214 38.616 20.2344 38.616 19.2636C38.616 18.2928 37.8289 17.5058 36.8582 17.5058Z" fill="#F50E30"/>
<path d="M36.8582 25.0882H9.99023C9.01945 25.0882 8.23242 25.8752 8.23242 26.846C8.23242 27.8168 9.01945 28.6038 9.99023 28.6038H36.8582C37.8289 28.6038 38.616 27.8168 38.616 26.846C38.616 25.8752 37.8289 25.0882 36.8582 25.0882Z" fill="#F50E30"/>
<path d="M26.5651 32.6706H9.99023C9.01945 32.6706 8.23242 33.4576 8.23242 34.4284C8.23242 35.3992 9.01945 36.1862 9.99023 36.1862H26.5651C27.5359 36.1862 28.3229 35.3992 28.3229 34.4284C28.3229 33.4576 27.5359 32.6706 26.5651 32.6706Z" fill="#F50E30"/>
<path d="M32.585 38.1546C28.2959 38.1546 24.8066 41.593 24.8066 45.8193C24.8066 50.0455 28.296 53.4838 32.585 53.4838C36.8739 53.4838 40.3633 50.0455 40.3633 45.8193C40.3633 41.593 36.874 38.1546 32.585 38.1546ZM32.585 49.9683C30.2344 49.9683 28.3223 48.1071 28.3223 45.8194C28.3223 43.5316 30.2345 41.6703 32.585 41.6703C34.9354 41.6703 36.8477 43.5316 36.8477 45.8194C36.8477 48.1071 34.9355 49.9683 32.585 49.9683Z" fill="#F50E30"/>
</g>
<defs>
<clipPath id="clip0_601_536">
<rect width="60" height="60" fill="white"/>
</clipPath>
</defs>
</svg>
