<svg width="60" height="60" viewBox="0 0 60 60" fill="none" xmlns="http://www.w3.org/2000/svg">
<mask id="path-1-outside-1_601_416" maskUnits="userSpaceOnUse" x="0" y="2" width="60" height="55">
<rect y="2" width="60" height="55"/>
<path d="M56.1 3H11.6333C10.0317 3 8.73333 4.2943 8.73333 5.89091V19.4541C4.7236 19.7432 1 20.9535 1 23.2364V52.1455C1 54.7935 6.0112 56 10.6667 56C14.0867 56 17.6905 55.3457 19.3667 53.9513C21.0429 55.3457 24.6466 56 28.0667 56C32.7221 56 37.7333 54.7935 37.7333 52.1455V36.7273H56.1C57.7016 36.7273 59 35.433 59 33.8364V5.89091C59 4.2943 57.7016 3 56.1 3ZM10.6667 5.89091C10.6667 5.35871 11.0995 4.92727 11.6333 4.92727H56.1C56.6339 4.92727 57.0667 5.35871 57.0667 5.89091V24.2H20.3333V23.2364C20.3333 20.5883 15.3221 19.3818 10.6667 19.3818V5.89091ZM57.0667 29.9818H34.7222C32.57 29.3062 30.3227 28.9808 28.0667 29.0182C25.4161 28.9304 22.7779 29.4156 20.3333 30.4405V26.1273H57.0667V29.9818ZM35.8 47.3273C35.8 47.8226 33.1407 49.2545 28.0667 49.2545C22.9926 49.2545 20.3333 47.8226 20.3333 47.3273V44.9413C22.7779 45.9662 25.4161 46.4514 28.0667 46.3636C30.7172 46.4514 33.3554 45.9662 35.8 44.9413V47.3273ZM35.8 32.8727C35.8 33.368 33.1407 34.8 28.0667 34.8C22.9926 34.8 20.3333 33.368 20.3333 32.8727C20.3333 32.3774 22.9926 30.9455 28.0667 30.9455C33.1407 30.9455 35.8 32.3774 35.8 32.8727ZM35.8 37.6909C35.8 38.1862 33.1407 39.6182 28.0667 39.6182C22.9926 39.6182 20.3333 38.1862 20.3333 37.6909V35.3049C22.7779 36.3298 25.4161 36.815 28.0667 36.7273C30.7172 36.815 33.3554 36.3298 35.8 35.3049V37.6909ZM18.4 28.0545C18.4 28.5499 15.7407 29.9818 10.6667 29.9818C5.59263 29.9818 2.93333 28.5499 2.93333 28.0545V25.6686C5.37794 26.6935 8.01613 27.1787 10.6667 27.0909C13.3172 27.1787 15.9554 26.6935 18.4 25.6686V28.0545ZM10.6667 31.9091C13.3172 31.9969 15.9554 31.5116 18.4 30.4868V32.8727C18.4 33.368 15.7407 34.8 10.6667 34.8C5.59263 34.8 2.93333 33.368 2.93333 32.8727V30.4868C5.37794 31.5116 8.01613 31.9969 10.6667 31.9091ZM10.6667 36.7273C13.3172 36.815 15.9554 36.3298 18.4 35.3049V37.6909C18.4 38.1862 15.7407 39.6182 10.6667 39.6182C5.59263 39.6182 2.93333 38.1862 2.93333 37.6909V35.3049C5.37794 36.3298 8.01613 36.815 10.6667 36.7273ZM10.6667 41.5455C13.3172 41.6332 15.9554 41.148 18.4 40.1231V42.5091C18.4 43.0044 15.7407 44.4364 10.6667 44.4364C5.59263 44.4364 2.93333 43.0044 2.93333 42.5091V40.1231C5.37794 41.148 8.01613 41.6332 10.6667 41.5455ZM2.93333 44.9413C5.37794 45.9662 8.01613 46.4514 10.6667 46.3636C13.3172 46.4514 15.9554 45.9662 18.4 44.9413V47.3273C18.4 47.8226 15.7407 49.2545 10.6667 49.2545C5.59263 49.2545 2.93333 47.8226 2.93333 47.3273V44.9413ZM35.8 42.5091C35.8 43.0044 33.1407 44.4364 28.0667 44.4364C22.9926 44.4364 20.3333 43.0044 20.3333 42.5091V40.1231C22.7779 41.148 25.4161 41.6332 28.0667 41.5455C30.7172 41.6332 33.3554 41.148 35.8 40.1231V42.5091ZM10.6667 21.3091C15.7407 21.3091 18.4 22.7411 18.4 23.2364C18.4 23.7317 15.7407 25.1636 10.6667 25.1636C5.59263 25.1636 2.93333 23.7317 2.93333 23.2364C2.93333 22.7411 5.59263 21.3091 10.6667 21.3091ZM10.6667 54.0727C5.59263 54.0727 2.93333 52.6408 2.93333 52.1455V49.7595C5.37794 50.7844 8.01613 51.2696 10.6667 51.1818C13.3172 51.2696 15.9554 50.7844 18.4 49.7595V52.1455C18.4 52.6408 15.7407 54.0727 10.6667 54.0727ZM28.0667 54.0727C22.9926 54.0727 20.3333 52.6408 20.3333 52.1455V49.7595C22.7779 50.7844 25.4161 51.2696 28.0667 51.1818C30.7172 51.2696 33.3554 50.7844 35.8 49.7595V52.1455C35.8 52.6408 33.1407 54.0727 28.0667 54.0727ZM56.1 34.8H37.7333V32.8727C37.732 32.5358 37.6462 32.2046 37.4839 31.9091H57.0667V33.8364C57.0667 34.3686 56.6339 34.8 56.1 34.8Z"/>
</mask>
<path d="M56.1 3H11.6333C10.0317 3 8.73333 4.2943 8.73333 5.89091V19.4541C4.7236 19.7432 1 20.9535 1 23.2364V52.1455C1 54.7935 6.0112 56 10.6667 56C14.0867 56 17.6905 55.3457 19.3667 53.9513C21.0429 55.3457 24.6466 56 28.0667 56C32.7221 56 37.7333 54.7935 37.7333 52.1455V36.7273H56.1C57.7016 36.7273 59 35.433 59 33.8364V5.89091C59 4.2943 57.7016 3 56.1 3ZM10.6667 5.89091C10.6667 5.35871 11.0995 4.92727 11.6333 4.92727H56.1C56.6339 4.92727 57.0667 5.35871 57.0667 5.89091V24.2H20.3333V23.2364C20.3333 20.5883 15.3221 19.3818 10.6667 19.3818V5.89091ZM57.0667 29.9818H34.7222C32.57 29.3062 30.3227 28.9808 28.0667 29.0182C25.4161 28.9304 22.7779 29.4156 20.3333 30.4405V26.1273H57.0667V29.9818ZM35.8 47.3273C35.8 47.8226 33.1407 49.2545 28.0667 49.2545C22.9926 49.2545 20.3333 47.8226 20.3333 47.3273V44.9413C22.7779 45.9662 25.4161 46.4514 28.0667 46.3636C30.7172 46.4514 33.3554 45.9662 35.8 44.9413V47.3273ZM35.8 32.8727C35.8 33.368 33.1407 34.8 28.0667 34.8C22.9926 34.8 20.3333 33.368 20.3333 32.8727C20.3333 32.3774 22.9926 30.9455 28.0667 30.9455C33.1407 30.9455 35.8 32.3774 35.8 32.8727ZM35.8 37.6909C35.8 38.1862 33.1407 39.6182 28.0667 39.6182C22.9926 39.6182 20.3333 38.1862 20.3333 37.6909V35.3049C22.7779 36.3298 25.4161 36.815 28.0667 36.7273C30.7172 36.815 33.3554 36.3298 35.8 35.3049V37.6909ZM18.4 28.0545C18.4 28.5499 15.7407 29.9818 10.6667 29.9818C5.59263 29.9818 2.93333 28.5499 2.93333 28.0545V25.6686C5.37794 26.6935 8.01613 27.1787 10.6667 27.0909C13.3172 27.1787 15.9554 26.6935 18.4 25.6686V28.0545ZM10.6667 31.9091C13.3172 31.9969 15.9554 31.5116 18.4 30.4868V32.8727C18.4 33.368 15.7407 34.8 10.6667 34.8C5.59263 34.8 2.93333 33.368 2.93333 32.8727V30.4868C5.37794 31.5116 8.01613 31.9969 10.6667 31.9091ZM10.6667 36.7273C13.3172 36.815 15.9554 36.3298 18.4 35.3049V37.6909C18.4 38.1862 15.7407 39.6182 10.6667 39.6182C5.59263 39.6182 2.93333 38.1862 2.93333 37.6909V35.3049C5.37794 36.3298 8.01613 36.815 10.6667 36.7273ZM10.6667 41.5455C13.3172 41.6332 15.9554 41.148 18.4 40.1231V42.5091C18.4 43.0044 15.7407 44.4364 10.6667 44.4364C5.59263 44.4364 2.93333 43.0044 2.93333 42.5091V40.1231C5.37794 41.148 8.01613 41.6332 10.6667 41.5455ZM2.93333 44.9413C5.37794 45.9662 8.01613 46.4514 10.6667 46.3636C13.3172 46.4514 15.9554 45.9662 18.4 44.9413V47.3273C18.4 47.8226 15.7407 49.2545 10.6667 49.2545C5.59263 49.2545 2.93333 47.8226 2.93333 47.3273V44.9413ZM35.8 42.5091C35.8 43.0044 33.1407 44.4364 28.0667 44.4364C22.9926 44.4364 20.3333 43.0044 20.3333 42.5091V40.1231C22.7779 41.148 25.4161 41.6332 28.0667 41.5455C30.7172 41.6332 33.3554 41.148 35.8 40.1231V42.5091ZM10.6667 21.3091C15.7407 21.3091 18.4 22.7411 18.4 23.2364C18.4 23.7317 15.7407 25.1636 10.6667 25.1636C5.59263 25.1636 2.93333 23.7317 2.93333 23.2364C2.93333 22.7411 5.59263 21.3091 10.6667 21.3091ZM10.6667 54.0727C5.59263 54.0727 2.93333 52.6408 2.93333 52.1455V49.7595C5.37794 50.7844 8.01613 51.2696 10.6667 51.1818C13.3172 51.2696 15.9554 50.7844 18.4 49.7595V52.1455C18.4 52.6408 15.7407 54.0727 10.6667 54.0727ZM28.0667 54.0727C22.9926 54.0727 20.3333 52.6408 20.3333 52.1455V49.7595C22.7779 50.7844 25.4161 51.2696 28.0667 51.1818C30.7172 51.2696 33.3554 50.7844 35.8 49.7595V52.1455C35.8 52.6408 33.1407 54.0727 28.0667 54.0727ZM56.1 34.8H37.7333V32.8727C37.732 32.5358 37.6462 32.2046 37.4839 31.9091H57.0667V33.8364C57.0667 34.3686 56.6339 34.8 56.1 34.8Z" fill="#F50E30"/>
<path d="M56.1 3H11.6333C10.0317 3 8.73333 4.2943 8.73333 5.89091V19.4541C4.7236 19.7432 1 20.9535 1 23.2364V52.1455C1 54.7935 6.0112 56 10.6667 56C14.0867 56 17.6905 55.3457 19.3667 53.9513C21.0429 55.3457 24.6466 56 28.0667 56C32.7221 56 37.7333 54.7935 37.7333 52.1455V36.7273H56.1C57.7016 36.7273 59 35.433 59 33.8364V5.89091C59 4.2943 57.7016 3 56.1 3ZM10.6667 5.89091C10.6667 5.35871 11.0995 4.92727 11.6333 4.92727H56.1C56.6339 4.92727 57.0667 5.35871 57.0667 5.89091V24.2H20.3333V23.2364C20.3333 20.5883 15.3221 19.3818 10.6667 19.3818V5.89091ZM57.0667 29.9818H34.7222C32.57 29.3062 30.3227 28.9808 28.0667 29.0182C25.4161 28.9304 22.7779 29.4156 20.3333 30.4405V26.1273H57.0667V29.9818ZM35.8 47.3273C35.8 47.8226 33.1407 49.2545 28.0667 49.2545C22.9926 49.2545 20.3333 47.8226 20.3333 47.3273V44.9413C22.7779 45.9662 25.4161 46.4514 28.0667 46.3636C30.7172 46.4514 33.3554 45.9662 35.8 44.9413V47.3273ZM35.8 32.8727C35.8 33.368 33.1407 34.8 28.0667 34.8C22.9926 34.8 20.3333 33.368 20.3333 32.8727C20.3333 32.3774 22.9926 30.9455 28.0667 30.9455C33.1407 30.9455 35.8 32.3774 35.8 32.8727ZM35.8 37.6909C35.8 38.1862 33.1407 39.6182 28.0667 39.6182C22.9926 39.6182 20.3333 38.1862 20.3333 37.6909V35.3049C22.7779 36.3298 25.4161 36.815 28.0667 36.7273C30.7172 36.815 33.3554 36.3298 35.8 35.3049V37.6909ZM18.4 28.0545C18.4 28.5499 15.7407 29.9818 10.6667 29.9818C5.59263 29.9818 2.93333 28.5499 2.93333 28.0545V25.6686C5.37794 26.6935 8.01613 27.1787 10.6667 27.0909C13.3172 27.1787 15.9554 26.6935 18.4 25.6686V28.0545ZM10.6667 31.9091C13.3172 31.9969 15.9554 31.5116 18.4 30.4868V32.8727C18.4 33.368 15.7407 34.8 10.6667 34.8C5.59263 34.8 2.93333 33.368 2.93333 32.8727V30.4868C5.37794 31.5116 8.01613 31.9969 10.6667 31.9091ZM10.6667 36.7273C13.3172 36.815 15.9554 36.3298 18.4 35.3049V37.6909C18.4 38.1862 15.7407 39.6182 10.6667 39.6182C5.59263 39.6182 2.93333 38.1862 2.93333 37.6909V35.3049C5.37794 36.3298 8.01613 36.815 10.6667 36.7273ZM10.6667 41.5455C13.3172 41.6332 15.9554 41.148 18.4 40.1231V42.5091C18.4 43.0044 15.7407 44.4364 10.6667 44.4364C5.59263 44.4364 2.93333 43.0044 2.93333 42.5091V40.1231C5.37794 41.148 8.01613 41.6332 10.6667 41.5455ZM2.93333 44.9413C5.37794 45.9662 8.01613 46.4514 10.6667 46.3636C13.3172 46.4514 15.9554 45.9662 18.4 44.9413V47.3273C18.4 47.8226 15.7407 49.2545 10.6667 49.2545C5.59263 49.2545 2.93333 47.8226 2.93333 47.3273V44.9413ZM35.8 42.5091C35.8 43.0044 33.1407 44.4364 28.0667 44.4364C22.9926 44.4364 20.3333 43.0044 20.3333 42.5091V40.1231C22.7779 41.148 25.4161 41.6332 28.0667 41.5455C30.7172 41.6332 33.3554 41.148 35.8 40.1231V42.5091ZM10.6667 21.3091C15.7407 21.3091 18.4 22.7411 18.4 23.2364C18.4 23.7317 15.7407 25.1636 10.6667 25.1636C5.59263 25.1636 2.93333 23.7317 2.93333 23.2364C2.93333 22.7411 5.59263 21.3091 10.6667 21.3091ZM10.6667 54.0727C5.59263 54.0727 2.93333 52.6408 2.93333 52.1455V49.7595C5.37794 50.7844 8.01613 51.2696 10.6667 51.1818C13.3172 51.2696 15.9554 50.7844 18.4 49.7595V52.1455C18.4 52.6408 15.7407 54.0727 10.6667 54.0727ZM28.0667 54.0727C22.9926 54.0727 20.3333 52.6408 20.3333 52.1455V49.7595C22.7779 50.7844 25.4161 51.2696 28.0667 51.1818C30.7172 51.2696 33.3554 50.7844 35.8 49.7595V52.1455C35.8 52.6408 33.1407 54.0727 28.0667 54.0727ZM56.1 34.8H37.7333V32.8727C37.732 32.5358 37.6462 32.2046 37.4839 31.9091H57.0667V33.8364C57.0667 34.3686 56.6339 34.8 56.1 34.8Z" stroke="#F50E30" stroke-width="0.8" mask="url(#path-1-outside-1_601_416)"/>
<path d="M49.9991 17.7H49.9998C52.8717 17.7 55.1998 15.3719 55.1998 12.5C55.1998 9.62812 52.8717 7.3 49.9998 7.3L49.9991 7.3C48.9256 7.30356 47.8813 7.64248 47.0114 8.26741C45.2163 6.98561 42.7995 6.97413 40.9893 8.25359C39.1379 9.56209 38.3477 11.9192 39.0362 14.0792C39.7246 16.2391 41.7331 17.7042 44.0002 17.7C45.0812 17.698 46.1335 17.3592 47.0114 16.7326C47.8813 17.3575 48.9256 17.6964 49.9991 17.7ZM52.7998 12.5C52.7998 14.0464 51.5462 15.3 49.9998 15.3C48.4534 15.3 47.1998 14.0464 47.1998 12.5C47.1998 10.9536 48.4534 9.7 49.9998 9.7C51.5462 9.7 52.7998 10.9536 52.7998 12.5ZM43.9991 9.7C44.4979 9.70285 44.9856 9.83998 45.4115 10.0954C44.5962 11.5937 44.5959 13.4046 45.4107 14.9031C44.4397 15.474 43.212 15.4075 42.3054 14.7189C41.3497 13.9929 40.9644 12.7376 41.3483 11.6004C41.732 10.4634 42.7991 9.69846 43.9991 9.7Z" fill="#F50E30" stroke="#F50E30" stroke-width="0.4"/>
<path d="M24 21.8H25C25.718 21.8 26.3 21.218 26.3 20.5C26.3 19.782 25.718 19.2 25 19.2H24C23.282 19.2 22.7 19.782 22.7 20.5C22.7 21.218 23.282 21.8 24 21.8Z" fill="#F50E30" stroke="#F50E30" stroke-width="0.6"/>
<path d="M29 21.8H30C30.718 21.8 31.3 21.218 31.3 20.5C31.3 19.782 30.718 19.2 30 19.2H29C28.282 19.2 27.7 19.782 27.7 20.5C27.7 21.218 28.282 21.8 29 21.8Z" fill="#F50E30" stroke="#F50E30" stroke-width="0.6"/>
<path d="M34 21.8H35C35.718 21.8 36.3 21.218 36.3 20.5C36.3 19.782 35.718 19.2 35 19.2H34C33.282 19.2 32.7 19.782 32.7 20.5C32.7 21.218 33.282 21.8 34 21.8Z" fill="#F50E30" stroke="#F50E30" stroke-width="0.6"/>
</svg>
