<svg width="60" height="60" viewBox="0 0 60 60" fill="none" xmlns="http://www.w3.org/2000/svg">
<g clip-path="url(#clip0_601_289)">
<path d="M51.0938 7.03126H46.9748C41.1928 7.03126 35.4589 4.61335 31.2429 0.397797C30.5567 -0.288849 29.4434 -0.288849 28.7572 0.397797C24.5412 4.61335 18.8072 7.03126 13.0252 7.03126H8.90625C7.93533 7.03126 7.14844 7.81815 7.14844 8.78907V29.8828C7.14844 36.9191 9.35486 42.8627 13.8931 48.0533C17.6962 52.403 22.4909 55.4316 26.3434 57.865C27.2997 58.4688 28.2028 59.0392 29.025 59.5876C29.3202 59.7845 29.6604 59.8829 30 59.8829C30.3397 59.8829 30.6798 59.7845 30.9751 59.5876C31.7711 59.0571 32.6578 58.4981 33.5962 57.9067C41.2642 53.0736 52.8516 45.77 52.8516 29.8828V8.78907C52.8516 7.81815 52.0647 7.03126 51.0938 7.03126ZM49.336 29.8828C49.336 43.8305 39.1553 50.2469 31.7217 54.9322C31.1261 55.308 30.5507 55.6701 30.0005 56.0244C29.4306 55.6568 28.8364 55.2814 28.2207 54.8928C20.8113 50.2121 10.6641 43.8025 10.6641 29.8828V10.5469H13.0252C19.1785 10.5469 25.2745 8.19672 30 4.04801C34.7255 8.19672 40.8216 10.5469 46.9748 10.5469H49.336V29.8828Z" fill="#F50E30"/>
<path d="M30 14.0625C21.2769 14.0625 14.1797 21.1592 14.1797 29.8828C14.1797 38.606 21.2769 45.7032 30 45.7032C38.7232 45.7032 45.8203 38.606 45.8203 29.8828C45.8203 21.1592 38.7236 14.0625 30 14.0625ZM30 42.1875C23.215 42.1875 17.6953 36.6678 17.6953 29.8828C17.6953 23.0978 23.215 17.5781 30 17.5781C36.785 17.5781 42.3047 23.0978 42.3047 29.8828C42.3047 36.6678 36.785 42.1875 30 42.1875Z" fill="#F50E30"/>
<path d="M35.7884 25.1244L28.2422 32.6702L24.2116 28.64C23.5254 27.9534 22.4121 27.9534 21.7259 28.64C21.0393 29.3262 21.0393 30.4395 21.7259 31.1257L26.9994 36.3991C27.3422 36.7425 27.7922 36.9141 28.2422 36.9141C28.6922 36.9141 29.1422 36.7425 29.485 36.3991L38.2741 27.6101C38.9607 26.9234 38.9607 25.8106 38.2741 25.124C37.5879 24.4378 36.4746 24.4378 35.7884 25.1244Z" fill="#F50E30"/>
</g>
<defs>
<clipPath id="clip0_601_289">
<rect width="60" height="60" fill="white"/>
</clipPath>
</defs>
</svg>
