<svg width="60" height="60" viewBox="0 0 60 60" fill="none" xmlns="http://www.w3.org/2000/svg">
<g clip-path="url(#clip0_601_596)">
<path d="M11.678 36.6426C5.24309 36.6426 0.0078125 41.8779 0.0078125 48.3128C0.0078125 54.7478 5.24309 59.983 11.678 59.983C18.113 59.983 23.3483 54.7478 23.3483 48.3128C23.3483 41.8779 18.113 36.6426 11.678 36.6426ZM11.678 56.1131C7.37699 56.1131 3.87773 52.6139 3.87773 48.3128C3.87773 44.0118 7.37699 40.5125 11.678 40.5125C15.9791 40.5125 19.4784 44.0118 19.4784 48.3128C19.4784 52.6139 15.9791 56.1131 11.678 56.1131Z" fill="#F50E30"/>
<path d="M54.0658 18.2612V15.6006C54.0658 12.3997 51.4618 9.79574 48.2609 9.79574H44.8747V4.8374C44.8747 2.17006 42.7047 0 40.0373 0H26.0089C23.3415 0 21.1715 2.17006 21.1715 4.8374V9.79574H9.68262C4.34793 9.79574 0.0078125 14.1359 0.0078125 19.4705V35.0712C0.0078125 36.1399 0.87407 37.0061 1.94277 37.0061C3.01148 37.0061 3.87773 36.1399 3.87773 35.0712V19.4705C3.87773 16.2696 6.48171 13.6657 9.68262 13.6657H21.1715V18.2612H15.6084C14.5397 18.2612 13.6735 19.1275 13.6735 20.1962C13.6735 21.2649 14.5397 22.1311 15.6084 22.1311H54.1867C55.2536 22.1311 56.1217 23.0048 56.1217 24.0785V54.1666C56.1217 55.2404 55.2536 56.114 54.1867 56.114H31.5114C30.4427 56.114 29.5764 56.9803 29.5764 58.049C29.5764 59.1177 30.4427 59.9839 31.5114 59.9839H54.1867C57.3875 59.9839 59.9916 57.3743 59.9916 54.1666V24.0785C59.9916 21.0133 57.5734 18.2612 54.0658 18.2612ZM48.2609 13.6657C49.3278 13.6657 50.1959 14.5337 50.1959 15.6006V18.2612H44.8747V13.6657H48.2609ZM41.0048 4.8374V18.2612H32.3579V3.86992H40.0373C40.5708 3.86992 41.0048 4.30396 41.0048 4.8374ZM25.0414 4.8374C25.0414 4.30396 25.4754 3.86992 26.0089 3.86992H28.488V18.2612H25.0414V4.8374Z" fill="#F50E30"/>
<path d="M51.4063 39.4854C51.4063 37.4516 49.7516 35.7969 47.7178 35.7969C45.6841 35.7969 44.0293 37.4516 44.0293 39.4854C44.0293 41.5192 45.6841 43.1739 47.7178 43.1739C49.7516 43.1739 51.4063 41.5192 51.4063 39.4854Z" fill="#F50E30"/>
<path d="M23.9812 57.3089C22.9458 59.8009 27.0456 61.3138 27.6649 58.4276C28.1165 56.091 24.8127 55.2113 23.9812 57.3089Z" fill="#F50E30"/>
<path d="M8 48L11 50.5L15.5 46" stroke="#F50E30" stroke-width="3" stroke-linecap="round" stroke-linejoin="round"/>
</g>
<defs>
<clipPath id="clip0_601_596">
<rect width="60" height="60" fill="white"/>
</clipPath>
</defs>
</svg>
