<svg width="50" height="41" viewBox="0 0 50 41" fill="none" xmlns="http://www.w3.org/2000/svg">
<path d="M14.4772 4.30941L15.8849 5.71204V0.787109H11.625V5.71204L13.0327 4.30941C13.2322 4.11094 13.4941 4.01067 13.755 4.01067C14.0158 4.01067 14.2777 4.11094 14.4772 4.30941Z" fill="#fff"/>
<path d="M25.0716 1.80964C25.0716 1.24597 24.6214 0.786621 24.0485 0.786621H17.9307V8.17297C17.9307 8.59239 17.6852 8.95968 17.2965 9.12339C17.1737 9.17451 17.0407 9.19599 16.9077 9.19599C16.6417 9.19599 16.3859 9.09269 16.1813 8.89934L13.7567 6.47475L11.3219 8.89934C11.0354 9.19599 10.5955 9.27788 10.2068 9.12339C9.82822 8.95968 9.58269 8.59239 9.58269 8.17297V0.786621H3.45472C2.892 0.786621 2.43164 1.24597 2.43164 1.80964V13.2565H10.9434L10.4728 12.7858C10.0738 12.3879 10.0738 11.7434 10.4728 11.3434C10.8717 10.9454 11.5163 10.9454 11.9153 11.3434L14.1353 13.5531C14.2273 13.6452 14.2989 13.7588 14.3603 13.8918C14.4626 14.1373 14.4626 14.4238 14.3603 14.6682C14.2989 14.7911 14.2273 14.9046 14.1353 15.0059L11.9153 17.2167C11.7209 17.4212 11.4549 17.5133 11.1991 17.5133C10.9331 17.5133 10.6671 17.4212 10.4728 17.2167C10.0738 16.8176 10.0738 16.1732 10.4728 15.7731L10.9434 15.3025H2.43164V22.0556H25.0716V1.80964Z" fill="#fff"/>
<path d="M46.2591 24.1016H1.47029C0.90763 24.1016 0.447266 24.5609 0.447266 25.1246V33.2669C0.447266 33.8297 0.90763 34.29 1.47029 34.29H4.77472C4.77472 30.4433 7.89503 27.3231 11.7417 27.3231C15.578 27.3231 18.7086 30.4433 18.7086 34.29H31.3022C31.3022 30.4433 34.4225 27.3231 38.2691 27.3231C42.1055 27.3231 45.236 30.4433 45.236 34.29H48.5302C49.1031 34.29 49.5533 33.8297 49.5533 33.2669V27.4049C49.5533 25.5839 48.0801 24.1016 46.2591 24.1016Z" fill="#fff"/>
<path d="M47.0163 12.6321C47.0163 12.4071 46.9446 12.1923 46.8117 12.0081L41.8499 5.52198C41.6556 5.26627 41.3589 5.11279 41.0417 5.11279H27.9059C27.3432 5.11279 26.8828 5.57316 26.8828 6.13582V22.0544H47.0163V12.6321ZM42.4638 15.4557C42.4638 16.0184 42.0033 16.4788 41.4407 16.4788H32.4584C31.8958 16.4788 31.4353 16.0184 31.4353 15.4557V9.67555C31.4353 9.10265 31.8958 8.65252 32.4584 8.65252H38.7808C39.1082 8.65252 39.4049 8.79576 39.5992 9.05153L42.2489 12.5299C42.3921 12.7038 42.4638 12.9289 42.4638 13.1539V15.4557Z" fill="#fff"/>
<path d="M38.2675 29.3672C35.5493 29.3672 33.3457 31.5708 33.3457 34.29C33.3457 37.0083 35.5493 39.2129 38.2675 39.2129C40.9868 39.2129 43.1904 37.0083 43.1904 34.29C43.1904 31.5708 40.9868 29.3672 38.2675 29.3672Z" fill="#fff"/>
<path d="M12.8786 39.0652C15.5239 38.4398 17.1615 35.7884 16.5362 33.1431C15.9109 30.4977 13.2594 28.8601 10.6141 29.4854C7.96871 30.1108 6.33114 32.7622 6.95646 35.4075C7.58178 38.0529 10.2332 39.6905 12.8786 39.0652Z" fill="#fff"/>
</svg>
