<svg width="1920" height="1080" viewBox="0 0 1920 1080" fill="none" xmlns="http://www.w3.org/2000/svg">
<g clip-path="url(#clip0_2234_8802)">
<g opacity="0.2" clip-path="url(#clip1_2234_8802)">
<path d="M162.097 773C83.5443 773 20 836.544 20 915.097C20 993.456 83.5443 1057.19 162.097 1057.19C240.456 1057.19 304.195 993.651 304.195 915.097C304 836.544 240.456 773 162.097 773ZM162.097 1048.03C88.6122 1048.03 29.1613 988.583 29.1613 915.097C29.1613 841.612 88.6122 782.161 162.097 782.161C235.583 782.161 295.034 841.612 295.034 915.097C295.034 988.388 235.388 1048.03 162.097 1048.03Z" fill="white"/>
<path d="M162.099 803.603C100.699 803.603 50.7988 853.502 50.7988 914.902C50.7988 976.303 100.699 1026.2 162.099 1026.2C223.499 1026.2 273.399 976.498 273.399 915.097C273.399 853.502 223.499 803.603 162.099 803.603ZM162.099 1009.24C110.055 1009.24 67.757 966.946 67.757 914.902C67.757 862.859 110.055 820.561 162.099 820.561C214.143 820.561 256.441 862.859 256.441 914.902C256.441 966.946 214.143 1009.24 162.099 1009.24Z" fill="white"/>
<path d="M162.098 852.527C127.597 852.527 99.5283 880.596 99.5283 915.097C99.5283 949.598 127.402 977.667 162.098 977.667C196.599 977.667 224.668 949.598 224.668 915.097C224.473 880.596 196.599 852.527 162.098 852.527ZM162.098 948.623C143.58 948.623 128.572 933.614 128.572 915.097C128.572 896.579 143.58 881.571 162.098 881.571C180.616 881.571 195.624 896.579 195.624 915.097C195.624 933.614 180.616 948.623 162.098 948.623Z" fill="white"/>
</g>
<g opacity="0.8" clip-path="url(#clip2_2234_8802)">
<path d="M1683.34 775.264C1683.34 776.784 1682.19 777.923 1680.67 777.923C1679.14 777.923 1678 776.784 1678 775.264C1678 773.745 1679.14 772.605 1680.67 772.605C1682.19 772.605 1683.34 773.872 1683.34 775.264Z" fill="white"/>
<path d="M1706.08 775.264C1706.08 776.784 1704.93 777.923 1703.41 777.923C1701.88 777.923 1700.74 776.784 1700.74 775.264C1700.74 773.745 1701.88 772.605 1703.41 772.605C1704.8 772.605 1706.08 773.872 1706.08 775.264Z" fill="white"/>
<path d="M1728.69 775.264C1728.69 776.784 1727.54 777.923 1726.02 777.923C1724.5 777.923 1723.35 776.784 1723.35 775.264C1723.35 773.745 1724.5 772.605 1726.02 772.605C1727.54 772.605 1728.69 773.872 1728.69 775.264Z" fill="white"/>
<path d="M1751.43 775.264C1751.43 776.784 1750.28 777.923 1748.76 777.923C1747.24 777.923 1746.09 776.784 1746.09 775.264C1746.09 773.745 1747.24 772.605 1748.76 772.605C1750.28 772.605 1751.43 773.872 1751.43 775.264Z" fill="white"/>
<path d="M1774.17 775.264C1774.17 776.784 1773.02 777.923 1771.5 777.923C1769.98 777.923 1768.83 776.784 1768.83 775.264C1768.83 773.745 1769.98 772.605 1771.5 772.605C1772.9 772.605 1774.17 773.872 1774.17 775.264Z" fill="white"/>
<path d="M1796.91 775.264C1796.91 776.784 1795.76 777.923 1794.24 777.923C1792.72 777.923 1791.57 776.784 1791.57 775.264C1791.57 773.745 1792.72 772.605 1794.24 772.605C1795.76 772.605 1796.91 773.872 1796.91 775.264Z" fill="white"/>
<path d="M1819.52 775.264C1819.52 776.784 1818.38 777.923 1816.85 777.923C1815.33 777.923 1814.18 776.784 1814.18 775.264C1814.18 773.745 1815.33 772.605 1816.85 772.605C1818.38 772.605 1819.52 773.872 1819.52 775.264Z" fill="white"/>
<path d="M1842.26 775.264C1842.26 776.784 1841.12 777.923 1839.59 777.923C1838.07 777.923 1836.92 776.784 1836.92 775.264C1836.92 773.745 1838.07 772.605 1839.59 772.605C1841.12 772.605 1842.26 773.872 1842.26 775.264Z" fill="white"/>
<path d="M1865 775.264C1865 776.784 1863.86 777.923 1862.33 777.923C1860.81 777.923 1859.66 776.784 1859.66 775.264C1859.66 773.745 1860.81 772.605 1862.33 772.605C1863.73 772.605 1865 773.872 1865 775.264Z" fill="white"/>
<path d="M1683.34 794.131C1683.34 795.65 1682.19 796.79 1680.67 796.79C1679.14 796.79 1678 795.65 1678 794.131C1678 792.611 1679.14 791.472 1680.67 791.472C1682.19 791.472 1683.34 792.611 1683.34 794.131Z" fill="white"/>
<path d="M1706.08 794.131C1706.08 795.65 1704.93 796.79 1703.41 796.79C1701.88 796.79 1700.74 795.65 1700.74 794.131C1700.74 792.611 1701.88 791.472 1703.41 791.472C1704.8 791.472 1706.08 792.611 1706.08 794.131Z" fill="white"/>
<path d="M1728.69 794.131C1728.69 795.65 1727.54 796.79 1726.02 796.79C1724.5 796.79 1723.35 795.65 1723.35 794.131C1723.35 792.611 1724.5 791.472 1726.02 791.472C1727.54 791.472 1728.69 792.611 1728.69 794.131Z" fill="white"/>
<path d="M1751.43 794.131C1751.43 795.65 1750.28 796.79 1748.76 796.79C1747.24 796.79 1746.09 795.65 1746.09 794.131C1746.09 792.611 1747.24 791.472 1748.76 791.472C1750.28 791.472 1751.43 792.611 1751.43 794.131Z" fill="white"/>
<path d="M1774.17 794.131C1774.17 795.65 1773.02 796.79 1771.5 796.79C1769.98 796.79 1768.83 795.65 1768.83 794.131C1768.83 792.611 1769.98 791.472 1771.5 791.472C1772.9 791.472 1774.17 792.611 1774.17 794.131Z" fill="white"/>
<path d="M1796.91 794.131C1796.91 795.65 1795.76 796.79 1794.24 796.79C1792.72 796.79 1791.57 795.65 1791.57 794.131C1791.57 792.611 1792.72 791.472 1794.24 791.472C1795.76 791.472 1796.91 792.611 1796.91 794.131Z" fill="white"/>
<path d="M1819.52 794.131C1819.52 795.65 1818.38 796.79 1816.85 796.79C1815.33 796.79 1814.18 795.65 1814.18 794.131C1814.18 792.611 1815.33 791.472 1816.85 791.472C1818.38 791.472 1819.52 792.611 1819.52 794.131Z" fill="white"/>
<path d="M1842.26 794.131C1842.26 795.65 1841.12 796.79 1839.59 796.79C1838.07 796.79 1836.92 795.65 1836.92 794.131C1836.92 792.611 1838.07 791.472 1839.59 791.472C1841.12 791.472 1842.26 792.611 1842.26 794.131Z" fill="white"/>
<path d="M1865 794.131C1865 795.65 1863.86 796.79 1862.33 796.79C1860.81 796.79 1859.66 795.65 1859.66 794.131C1859.66 792.611 1860.81 791.472 1862.33 791.472C1863.73 791.472 1865 792.611 1865 794.131Z" fill="white"/>
<path d="M1683.34 737.659C1683.34 739.178 1682.19 740.318 1680.67 740.318C1679.14 740.318 1678 739.178 1678 737.659C1678 736.14 1679.14 735 1680.67 735C1682.19 735 1683.34 736.14 1683.34 737.659Z" fill="white"/>
<path d="M1706.08 737.659C1706.08 739.178 1704.93 740.318 1703.41 740.318C1701.88 740.318 1700.74 739.178 1700.74 737.659C1700.74 736.14 1701.88 735 1703.41 735C1704.8 735 1706.08 736.14 1706.08 737.659Z" fill="white"/>
<path d="M1728.69 737.659C1728.69 739.178 1727.54 740.318 1726.02 740.318C1724.5 740.318 1723.35 739.178 1723.35 737.659C1723.35 736.14 1724.62 735 1726.02 735C1727.54 735 1728.69 736.14 1728.69 737.659Z" fill="white"/>
<path d="M1751.43 737.659C1751.43 739.178 1750.28 740.318 1748.76 740.318C1747.24 740.318 1746.09 739.178 1746.09 737.659C1746.09 736.14 1747.36 735 1748.76 735C1750.16 735 1751.43 736.14 1751.43 737.659Z" fill="white"/>
<path d="M1774.17 737.659C1774.17 739.178 1773.02 740.318 1771.5 740.318C1769.98 740.318 1768.83 739.178 1768.83 737.659C1768.83 736.14 1769.98 735 1771.5 735C1772.9 735 1774.17 736.14 1774.17 737.659Z" fill="white"/>
<path d="M1796.91 737.659C1796.91 739.178 1795.76 740.318 1794.24 740.318C1792.72 740.318 1791.57 739.178 1791.57 737.659C1791.57 736.14 1792.72 735 1794.24 735C1795.76 735 1796.91 736.14 1796.91 737.659Z" fill="white"/>
<path d="M1819.52 737.659C1819.52 739.178 1818.38 740.318 1816.85 740.318C1815.33 740.318 1814.18 739.178 1814.18 737.659C1814.18 736.14 1815.33 735 1816.85 735C1818.38 735 1819.52 736.14 1819.52 737.659Z" fill="white"/>
<path d="M1842.26 737.659C1842.26 739.178 1841.12 740.318 1839.59 740.318C1838.07 740.318 1836.92 739.178 1836.92 737.659C1836.92 736.14 1838.07 735 1839.59 735C1841.12 735 1842.26 736.14 1842.26 737.659Z" fill="white"/>
<path d="M1865 737.659C1865 739.178 1863.86 740.318 1862.33 740.318C1860.81 740.318 1859.66 739.178 1859.66 737.659C1859.66 736.14 1860.81 735 1862.33 735C1863.73 735 1865 736.14 1865 737.659Z" fill="white"/>
<path d="M1683.34 756.525C1683.34 758.045 1682.19 759.184 1680.67 759.184C1679.14 759.184 1678 757.918 1678 756.525C1678 755.006 1679.14 753.866 1680.67 753.866C1682.19 753.866 1683.34 755.006 1683.34 756.525Z" fill="white"/>
<path d="M1706.08 756.525C1706.08 758.045 1704.93 759.184 1703.41 759.184C1701.88 759.184 1700.74 758.045 1700.74 756.525C1700.74 755.006 1701.88 753.866 1703.41 753.866C1704.8 753.866 1706.08 755.006 1706.08 756.525Z" fill="white"/>
<path d="M1728.69 756.525C1728.69 758.045 1727.54 759.184 1726.02 759.184C1724.5 759.184 1723.35 758.045 1723.35 756.525C1723.35 755.006 1724.5 753.866 1726.02 753.866C1727.54 753.866 1728.69 755.006 1728.69 756.525Z" fill="white"/>
<path d="M1751.43 756.525C1751.43 758.045 1750.28 759.184 1748.76 759.184C1747.24 759.184 1746.09 758.045 1746.09 756.525C1746.09 755.006 1747.24 753.866 1748.76 753.866C1750.28 753.866 1751.43 755.006 1751.43 756.525Z" fill="white"/>
<path d="M1774.17 756.525C1774.17 758.045 1773.02 759.184 1771.5 759.184C1769.98 759.184 1768.83 758.045 1768.83 756.525C1768.83 755.006 1769.98 753.866 1771.5 753.866C1772.9 753.866 1774.17 755.006 1774.17 756.525Z" fill="white"/>
<path d="M1796.91 756.525C1796.91 758.045 1795.76 759.184 1794.24 759.184C1792.72 759.184 1791.57 758.045 1791.57 756.525C1791.57 755.006 1792.72 753.866 1794.24 753.866C1795.76 753.866 1796.91 755.006 1796.91 756.525Z" fill="white"/>
<path d="M1819.52 756.525C1819.52 758.045 1818.38 759.184 1816.85 759.184C1815.33 759.184 1814.18 758.045 1814.18 756.525C1814.18 755.006 1815.33 753.866 1816.85 753.866C1818.38 753.866 1819.52 755.006 1819.52 756.525Z" fill="white"/>
<path d="M1842.26 756.525C1842.26 758.045 1841.12 759.184 1839.59 759.184C1838.07 759.184 1836.92 758.045 1836.92 756.525C1836.92 755.006 1838.07 753.866 1839.59 753.866C1841.12 753.866 1842.26 755.006 1842.26 756.525Z" fill="white"/>
<path d="M1865 756.525C1865 758.045 1863.86 759.184 1862.33 759.184C1860.81 759.184 1859.66 758.045 1859.66 756.525C1859.66 755.006 1860.81 753.866 1862.33 753.866C1863.73 753.866 1865 755.006 1865 756.525Z" fill="white"/>
<path d="M1683.34 812.87C1683.34 814.389 1682.19 815.529 1680.67 815.529C1679.14 815.529 1678 814.389 1678 812.87C1678 811.35 1679.14 810.211 1680.67 810.211C1682.19 810.211 1683.34 811.477 1683.34 812.87Z" fill="white"/>
<path d="M1706.08 812.87C1706.08 814.389 1704.93 815.529 1703.41 815.529C1701.88 815.529 1700.74 814.389 1700.74 812.87C1700.74 811.35 1701.88 810.211 1703.41 810.211C1704.8 810.211 1706.08 811.477 1706.08 812.87Z" fill="white"/>
<path d="M1728.69 812.87C1728.69 814.389 1727.54 815.529 1726.02 815.529C1724.5 815.529 1723.35 814.389 1723.35 812.87C1723.35 811.35 1724.5 810.211 1726.02 810.211C1727.54 810.211 1728.69 811.477 1728.69 812.87Z" fill="white"/>
<path d="M1751.43 812.87C1751.43 814.389 1750.28 815.529 1748.76 815.529C1747.24 815.529 1746.09 814.389 1746.09 812.87C1746.09 811.35 1747.24 810.211 1748.76 810.211C1750.28 810.211 1751.43 811.477 1751.43 812.87Z" fill="white"/>
<path d="M1774.17 812.87C1774.17 814.389 1773.02 815.529 1771.5 815.529C1769.98 815.529 1768.83 814.389 1768.83 812.87C1768.83 811.35 1769.98 810.211 1771.5 810.211C1772.9 810.211 1774.17 811.477 1774.17 812.87Z" fill="white"/>
<path d="M1796.91 812.87C1796.91 814.389 1795.76 815.529 1794.24 815.529C1792.72 815.529 1791.57 814.389 1791.57 812.87C1791.57 811.35 1792.72 810.211 1794.24 810.211C1795.76 810.211 1796.91 811.477 1796.91 812.87Z" fill="white"/>
<path d="M1819.52 812.87C1819.52 814.389 1818.38 815.529 1816.85 815.529C1815.33 815.529 1814.18 814.389 1814.18 812.87C1814.18 811.35 1815.33 810.211 1816.85 810.211C1818.38 810.211 1819.52 811.477 1819.52 812.87Z" fill="white"/>
<path d="M1842.26 812.87C1842.26 814.389 1841.12 815.529 1839.59 815.529C1838.07 815.529 1836.92 814.389 1836.92 812.87C1836.92 811.35 1838.07 810.211 1839.59 810.211C1841.12 810.211 1842.26 811.477 1842.26 812.87Z" fill="white"/>
<path d="M1865 812.87C1865 814.389 1863.86 815.529 1862.33 815.529C1860.81 815.529 1859.66 814.389 1859.66 812.87C1859.66 811.35 1860.81 810.211 1862.33 810.211C1863.73 810.211 1865 811.477 1865 812.87Z" fill="white"/>
<path d="M1683.34 831.736C1683.34 833.256 1682.19 834.395 1680.67 834.395C1679.14 834.395 1678 833.256 1678 831.736C1678 830.217 1679.14 829.077 1680.67 829.077C1682.19 829.077 1683.34 830.217 1683.34 831.736Z" fill="white"/>
<path d="M1706.08 831.736C1706.08 833.256 1704.93 834.395 1703.41 834.395C1701.88 834.395 1700.74 833.256 1700.74 831.736C1700.74 830.217 1701.88 829.077 1703.41 829.077C1704.8 829.077 1706.08 830.217 1706.08 831.736Z" fill="white"/>
<path d="M1728.69 831.736C1728.69 833.256 1727.54 834.395 1726.02 834.395C1724.5 834.395 1723.35 833.256 1723.35 831.736C1723.35 830.217 1724.5 829.077 1726.02 829.077C1727.54 829.077 1728.69 830.217 1728.69 831.736Z" fill="white"/>
<path d="M1748.76 834.395C1750.23 834.395 1751.43 833.205 1751.43 831.736C1751.43 830.268 1750.23 829.077 1748.76 829.077C1747.29 829.077 1746.09 830.268 1746.09 831.736C1746.09 833.205 1747.29 834.395 1748.76 834.395Z" fill="white"/>
<path d="M1774.17 831.736C1774.17 833.256 1773.02 834.395 1771.5 834.395C1769.98 834.395 1768.83 833.256 1768.83 831.736C1768.83 830.217 1769.98 829.077 1771.5 829.077C1772.9 829.077 1774.17 830.217 1774.17 831.736Z" fill="white"/>
<path d="M1796.91 831.736C1796.91 833.256 1795.76 834.395 1794.24 834.395C1792.72 834.395 1791.57 833.256 1791.57 831.736C1791.57 830.217 1792.72 829.077 1794.24 829.077C1795.76 829.077 1796.91 830.217 1796.91 831.736Z" fill="white"/>
<path d="M1819.52 831.736C1819.52 833.256 1818.38 834.395 1816.85 834.395C1815.33 834.395 1814.18 833.256 1814.18 831.736C1814.18 830.217 1815.33 829.077 1816.85 829.077C1818.38 829.077 1819.52 830.217 1819.52 831.736Z" fill="white"/>
<path d="M1839.59 834.395C1841.07 834.395 1842.26 833.205 1842.26 831.736C1842.26 830.268 1841.07 829.077 1839.59 829.077C1838.12 829.077 1836.92 830.268 1836.92 831.736C1836.92 833.205 1838.12 834.395 1839.59 834.395Z" fill="white"/>
<path d="M1865 831.736C1865 833.256 1863.86 834.395 1862.33 834.395C1860.81 834.395 1859.66 833.256 1859.66 831.736C1859.66 830.217 1860.81 829.077 1862.33 829.077C1863.73 829.077 1865 830.217 1865 831.736Z" fill="white"/>
<path d="M1683.34 850.601C1683.34 852.121 1682.19 853.26 1680.67 853.26C1679.14 853.26 1678 852.121 1678 850.601C1678 849.082 1679.14 847.942 1680.67 847.942C1682.19 847.942 1683.34 849.082 1683.34 850.601Z" fill="white"/>
<path d="M1706.08 850.601C1706.08 852.121 1704.93 853.26 1703.41 853.26C1701.88 853.26 1700.74 852.121 1700.74 850.601C1700.74 849.082 1701.88 847.942 1703.41 847.942C1704.8 847.942 1706.08 849.082 1706.08 850.601Z" fill="white"/>
<path d="M1728.69 850.601C1728.69 852.121 1727.54 853.26 1726.02 853.26C1724.5 853.26 1723.35 852.121 1723.35 850.601C1723.35 849.082 1724.5 847.942 1726.02 847.942C1727.54 847.942 1728.69 849.082 1728.69 850.601Z" fill="white"/>
<path d="M1751.43 850.601C1751.43 852.121 1750.28 853.26 1748.76 853.26C1747.24 853.26 1746.09 852.121 1746.09 850.601C1746.09 849.082 1747.24 847.942 1748.76 847.942C1750.28 847.942 1751.43 849.082 1751.43 850.601Z" fill="white"/>
<path d="M1774.17 850.601C1774.17 852.121 1773.02 853.26 1771.5 853.26C1769.98 853.26 1768.83 852.121 1768.83 850.601C1768.83 849.082 1769.98 847.942 1771.5 847.942C1772.9 847.942 1774.17 849.082 1774.17 850.601Z" fill="white"/>
<path d="M1796.91 850.601C1796.91 852.121 1795.76 853.26 1794.24 853.26C1792.72 853.26 1791.57 852.121 1791.57 850.601C1791.57 849.082 1792.72 847.942 1794.24 847.942C1795.76 847.942 1796.91 849.082 1796.91 850.601Z" fill="white"/>
<path d="M1819.52 850.601C1819.52 852.121 1818.38 853.26 1816.85 853.26C1815.33 853.26 1814.18 852.121 1814.18 850.601C1814.18 849.082 1815.33 847.942 1816.85 847.942C1818.38 847.942 1819.52 849.082 1819.52 850.601Z" fill="white"/>
<path d="M1842.26 850.601C1842.26 852.121 1841.12 853.26 1839.59 853.26C1838.07 853.26 1836.92 852.121 1836.92 850.601C1836.92 849.082 1838.07 847.942 1839.59 847.942C1841.12 847.942 1842.26 849.082 1842.26 850.601Z" fill="white"/>
<path d="M1865 850.601C1865 852.121 1863.86 853.26 1862.33 853.26C1860.81 853.26 1859.66 852.121 1859.66 850.601C1859.66 849.082 1860.81 847.942 1862.33 847.942C1863.73 847.942 1865 849.082 1865 850.601Z" fill="white"/>
<path d="M1683.34 869.341C1683.34 870.86 1682.19 872 1680.67 872C1679.14 872 1678 870.86 1678 869.341C1678 867.821 1679.14 866.682 1680.67 866.682C1682.19 866.682 1683.34 867.948 1683.34 869.341Z" fill="white"/>
<path d="M1706.08 869.341C1706.08 870.86 1704.93 872 1703.41 872C1701.88 872 1700.74 870.86 1700.74 869.341C1700.74 867.821 1701.88 866.682 1703.41 866.682C1704.8 866.682 1706.08 867.948 1706.08 869.341Z" fill="white"/>
<path d="M1728.69 869.341C1728.69 870.86 1727.54 872 1726.02 872C1724.5 872 1723.35 870.86 1723.35 869.341C1723.35 867.821 1724.5 866.682 1726.02 866.682C1727.54 866.682 1728.69 867.948 1728.69 869.341Z" fill="white"/>
<path d="M1751.43 869.341C1751.43 870.86 1750.28 872 1748.76 872C1747.24 872 1746.09 870.86 1746.09 869.341C1746.09 867.821 1747.24 866.682 1748.76 866.682C1750.28 866.682 1751.43 867.948 1751.43 869.341Z" fill="white"/>
<path d="M1774.17 869.341C1774.17 870.86 1773.02 872 1771.5 872C1769.98 872 1768.83 870.86 1768.83 869.341C1768.83 867.821 1769.98 866.682 1771.5 866.682C1772.9 866.682 1774.17 867.948 1774.17 869.341Z" fill="white"/>
<path d="M1796.91 869.341C1796.91 870.86 1795.76 872 1794.24 872C1792.72 872 1791.57 870.86 1791.57 869.341C1791.57 867.821 1792.72 866.682 1794.24 866.682C1795.76 866.682 1796.91 867.948 1796.91 869.341Z" fill="white"/>
<path d="M1819.52 869.341C1819.52 870.86 1818.38 872 1816.85 872C1815.33 872 1814.18 870.86 1814.18 869.341C1814.18 867.821 1815.33 866.682 1816.85 866.682C1818.38 866.682 1819.52 867.948 1819.52 869.341Z" fill="white"/>
<path d="M1842.26 869.341C1842.26 870.86 1841.12 872 1839.59 872C1838.07 872 1836.92 870.86 1836.92 869.341C1836.92 867.821 1838.07 866.682 1839.59 866.682C1841.12 866.682 1842.26 867.948 1842.26 869.341Z" fill="white"/>
<path d="M1865 869.341C1865 870.86 1863.86 872 1862.33 872C1860.81 872 1859.66 870.86 1859.66 869.341C1859.66 867.821 1860.81 866.682 1862.33 866.682C1863.73 866.682 1865 867.948 1865 869.341Z" fill="white"/>
</g>
<g opacity="0.3">
<path d="M1761.81 75.2212L1771.47 84.8799L1745.78 110.563L1720.1 84.8799L1729.68 75.2943L1745.71 91.319L1761.81 75.2212Z" fill="white"/>
<path d="M1761.81 40.5386L1771.39 50.1241L1745.71 75.8075L1720.1 50.1973L1729.76 40.5386L1745.78 56.5632L1761.81 40.5386Z" fill="white"/>
<path d="M1761.73 5.78165L1771.39 15.4404L1745.78 41.0506L1720.1 15.3672L1729.68 5.78165L1745.71 21.8063L1761.73 5.78165Z" fill="white"/>
<path d="M1761.81 -28.9761L1771.46 -19.3174L1745.78 6.36601L1720.1 -19.3174L1729.76 -28.9761L1745.78 -12.9514L1761.81 -28.9761Z" fill="white"/>
</g>
<path opacity="0.3" d="M794 808.553C780.071 822.482 757.377 822.482 743.447 808.553C729.518 794.623 729.518 771.929 743.447 758L794 808.553Z" fill="white"/>
<g opacity="0.3">
<path d="M848.486 529.89C859.205 529.89 867.937 521.165 867.937 510.453C867.937 499.742 859.205 491.017 848.486 491.017L848.486 529.89Z" fill="white"/>
<path d="M818.141 529.89C828.861 529.89 837.592 521.165 837.592 510.453C837.592 499.742 828.861 491.017 818.141 491.017L818.141 529.89Z" fill="white"/>
<path d="M787.797 529.89C798.516 529.89 807.248 521.165 807.248 510.453C807.248 499.742 798.516 491.017 787.797 491.017V529.89Z" fill="white"/>
</g>
<g opacity="0.3">
<path d="M146.301 144.921L146.301 133L178 133L178 164.699L166.169 164.699L166.169 144.921L146.301 144.921Z" fill="white"/>
<path d="M124.899 166.325L124.899 154.494L156.598 154.494L156.598 186.103L144.677 186.103L144.677 166.325L124.899 166.325Z" fill="white"/>
<path d="M103.495 187.819L103.495 175.898L135.104 175.898L135.104 207.597L123.273 207.597L123.273 187.819L103.495 187.819Z" fill="white"/>
<path d="M82.0014 209.222L82.0014 197.301L113.7 197.301L113.7 229L101.779 229L101.779 209.222L82.0014 209.222Z" fill="white"/>
</g>
</g>
<defs>
<clipPath id="clip0_2234_8802">
<rect width="1920" height="1080" fill="white"/>
</clipPath>
<clipPath id="clip1_2234_8802">
<rect width="284" height="284" fill="white" transform="translate(20 773)"/>
</clipPath>
<clipPath id="clip2_2234_8802">
<rect width="187" height="137" fill="white" transform="translate(1678 735)"/>
</clipPath>
</defs>
</svg>
