<svg width="20" height="20" viewBox="0 0 20 20" fill="none" xmlns="http://www.w3.org/2000/svg">
<path fill-rule="evenodd" clip-rule="evenodd" d="M10 20C15.5228 20 20 15.5228 20 10C20 4.4772 15.5228 0 10 0C4.4772 0 0 4.4772 0 10C0 15.5228 4.4772 20 10 20ZM14.3954 6.3888C14.4726 5.5128 13.5474 5.8736 13.5474 5.8736C12.8644 6.1564 12.16 6.4436 11.448 6.734C9.24 7.6346 6.9592 8.565 5.0162 9.4808C3.9626 9.8672 4.5794 10.2536 4.5794 10.2536L6.2496 10.769C7.0206 11.001 7.4316 10.7432 7.4316 10.7432L11.0292 8.2956C12.314 7.4196 12.0056 8.141 11.6972 8.4502L8.9992 11.0266C8.588 11.3874 8.7936 11.6966 8.9734 11.8512C9.4834 12.301 10.7374 13.124 11.2848 13.4832C11.4272 13.5766 11.5218 13.6388 11.5432 13.6548C11.6716 13.7578 12.3654 14.2216 12.828 14.1186C13.2906 14.0154 13.342 13.4228 13.342 13.4228L13.9586 9.3776C14.051 8.6754 14.1572 8.0004 14.242 7.4612C14.322 6.952 14.383 6.5642 14.3954 6.3888V6.3888Z" fill="black"/>
</svg>
