<svg width="20" height="20" viewBox="0 0 20 20" fill="none" xmlns="http://www.w3.org/2000/svg">
<path fill-rule="evenodd" clip-rule="evenodd" d="M10 20C15.5228 20 20 15.5228 20 10C20 4.47716 15.5228 0 10 0C4.47716 0 0 4.47716 0 10C0 15.5228 4.47716 20 10 20ZM13.9525 5.79856C12.9234 4.7682 11.5548 4.20054 10.0966 4.2C7.09232 4.2 4.64692 6.64504 4.64584 9.65044C4.64548 10.6111 4.89646 11.5489 5.37336 12.3754L4.6 15.2L7.48954 14.4421C8.28564 14.8764 9.18214 15.1052 10.0943 15.1056H10.0965C13.1006 15.1056 15.546 12.6602 15.5473 9.65498C15.5482 8.1983 14.9818 6.82892 13.9525 5.79856ZM12.5817 10.7918C12.4455 10.7236 11.776 10.3942 11.651 10.3487C11.5263 10.3032 11.4353 10.2805 11.3446 10.4169C11.2538 10.5533 10.9928 10.86 10.9133 10.9509C10.8338 11.0418 10.7544 11.0531 10.6183 10.9849C10.596 10.9738 10.5657 10.9606 10.5282 10.9443C10.3364 10.8611 9.9581 10.6971 9.52302 10.3089C9.11814 9.94764 8.84478 9.50168 8.7653 9.36544C8.68582 9.22904 8.75674 9.15538 8.82496 9.08752C8.86584 9.04676 8.9128 8.98956 8.95974 8.9324C8.98314 8.90388 9.00656 8.87536 9.0292 8.8489C9.0869 8.7815 9.112 8.73032 9.14604 8.66098C9.15214 8.64854 9.15852 8.63552 9.16544 8.62174C9.2109 8.5308 9.18818 8.4513 9.15416 8.3831C9.13144 8.33754 9.00236 8.02334 8.8853 7.73846C8.8271 7.5968 8.77188 7.46238 8.7342 7.37184C8.63656 7.1374 8.53766 7.138 8.45826 7.13848C8.44772 7.13856 8.43752 7.13862 8.42772 7.13812C8.34842 7.13412 8.25748 7.1334 8.16672 7.1334C8.07596 7.1334 7.92846 7.1674 7.8035 7.30382C7.79546 7.31262 7.78646 7.32222 7.77668 7.33266C7.63476 7.48418 7.3268 7.81296 7.3268 8.44004C7.3268 9.1088 7.8124 9.75496 7.88248 9.84822L7.883 9.84888C7.88742 9.8548 7.89534 9.86618 7.90666 9.88242C8.06924 10.1156 8.9323 11.3538 10.2096 11.9054C10.5346 12.0458 10.7882 12.1295 10.9861 12.1922C11.3124 12.2959 11.6092 12.2814 11.844 12.2463C12.1057 12.2072 12.6497 11.9169 12.7632 11.5988C12.8767 11.2807 12.8767 11.0078 12.8427 10.9511C12.8153 10.9052 12.7509 10.874 12.6555 10.8279C12.6327 10.8169 12.608 10.8049 12.5817 10.7918Z" fill="black"/>
</svg>
