<svg width="36" height="36" viewBox="0 0 36 36" fill="none" xmlns="http://www.w3.org/2000/svg">
<g clip-path="url(#clip0_470_2039)">
<path d="M18 0C14.4399 0 10.9598 1.05568 7.99974 3.03355C5.03966 5.01141 2.73255 7.82263 1.37018 11.1117C0.00779911 14.4008 -0.348661 18.02 0.345873 21.5116C1.04041 25.0033 2.75474 28.2106 5.27209 30.7279C7.78943 33.2453 10.9967 34.9596 14.4884 35.6541C17.98 36.3487 21.5992 35.9922 24.8883 34.6298C28.1774 33.2674 30.9886 30.9603 32.9665 28.0003C34.9443 25.0402 36 21.5601 36 18C36 15.6362 35.5344 13.2956 34.6298 11.1117C33.7253 8.92783 32.3994 6.94353 30.7279 5.27208C29.0565 3.60062 27.0722 2.27475 24.8883 1.37017C22.7044 0.465584 20.3638 0 18 0ZM28.2168 14.8266L17.4168 24.7266C17.0749 25.0401 16.6251 25.2095 16.1613 25.1995C15.6974 25.1894 15.2554 25.0007 14.9274 24.6726L9.52741 19.2726C9.35549 19.1066 9.21836 18.9079 9.12402 18.6883C9.02969 18.4687 8.98003 18.2325 8.97796 17.9935C8.97588 17.7545 9.02142 17.5175 9.11193 17.2963C9.20243 17.0751 9.33609 16.8741 9.50509 16.7051C9.6741 16.5361 9.87508 16.4024 10.0963 16.3119C10.3175 16.2214 10.5545 16.1759 10.7935 16.1779C11.0325 16.18 11.2687 16.2297 11.4883 16.324C11.7079 16.4183 11.9066 16.5555 12.0726 16.7274L16.254 20.9088L25.7832 12.1734C26.135 11.8507 26.6007 11.681 27.0776 11.7015C27.5546 11.7221 28.0039 11.9314 28.3266 12.2832C28.6493 12.635 28.819 13.1007 28.7985 13.5776C28.7779 14.0546 28.5686 14.5039 28.2168 14.8266Z" fill="#F50E30"/>
</g>
<defs>
<clipPath id="clip0_470_2039">
<rect width="36" height="36" fill="white"/>
</clipPath>
</defs>
</svg>
