<svg width="36" height="36" viewBox="0 0 36 36" fill="none" xmlns="http://www.w3.org/2000/svg">
<g clip-path="url(#clip0_470_1751)">
<path d="M13.1857 0C12.0841 0 11.1146 0.705164 10.7735 1.75465L0.721772 32.6705C0.470546 33.4432 0.605545 34.2968 1.08283 34.9539C1.5658 35.6187 2.31344 36 3.13412 36H5.18029L13.3681 0H13.1857Z" fill="#F50E30"/>
<path d="M19.0336 0V3.3513C19.0336 3.93377 18.5614 4.40599 17.9789 4.40599C17.3965 4.40599 16.9243 3.93377 16.9243 3.3513V0H15.5316L7.34375 36H16.9202V32.6487C16.9202 32.0662 17.3925 31.594 17.9749 31.594C18.5574 31.594 19.0296 32.0662 19.0296 32.6487V36H29.3331L21.1454 0H19.0336ZM16.9182 9.98438V7.12526C16.9182 6.54279 17.3904 6.07057 17.9729 6.07057C18.5554 6.07057 19.0276 6.54279 19.0276 7.12526V9.98438C19.0276 10.5668 18.5554 11.0391 17.9729 11.0391C17.3904 11.0391 16.9182 10.5668 16.9182 9.98438ZM19.0316 13.1721V16.1719C19.0316 16.7543 18.5594 17.2266 17.9769 17.2266C17.3944 17.2266 16.9222 16.7543 16.9222 16.1719V13.1721C16.9222 12.5897 17.3944 12.1174 17.9769 12.1174C18.5594 12.1174 19.0316 12.5897 19.0316 13.1721ZM16.9202 19.3596C16.9202 18.7772 17.3924 18.3049 17.9749 18.3049C18.5573 18.3049 19.0295 18.7772 19.0295 19.3596V22.3594C19.0295 22.9418 18.5573 23.4141 17.9749 23.4141C17.3924 23.4141 16.9202 22.9418 16.9202 22.3594V19.3596ZM19.0336 28.6172C19.0336 29.1997 18.5614 29.6719 17.9789 29.6719C17.3965 29.6719 16.9243 29.1997 16.9243 28.6172V25.6174C16.9243 25.035 17.3965 24.5628 17.9789 24.5628C18.5614 24.5628 19.0336 25.035 19.0336 25.6174V28.6172Z" fill="#F50E30"/>
<path d="M35.2896 32.7156L25.8699 1.79979C25.5419 0.723305 24.5667 0 23.4434 0H23.3086L31.4963 36H32.8631C33.6743 36 34.4168 35.6257 34.9003 34.9729C35.3853 34.3182 35.5271 33.4954 35.2896 32.7156Z" fill="#F50E30"/>
</g>
<defs>
<clipPath id="clip0_470_1751">
<rect width="36" height="36" fill="white"/>
</clipPath>
</defs>
</svg>
