<svg width="35" height="36" viewBox="0 0 35 36" fill="none" xmlns="http://www.w3.org/2000/svg">
<g clip-path="url(#clip0_470_1723)">
<path d="M33.2358 1.30426C32.0804 1.10632 30.9834 1.88241 30.7854 3.03778L30.4874 4.36536C30.3314 5.05974 30.4051 5.76431 30.6679 6.38873C30.7162 6.38296 30.7638 6.37783 30.8107 6.37333C30.9936 6.35582 31.1789 6.34696 31.3615 6.34696C32.5 6.34696 33.5715 6.69207 34.4086 7.31023L34.9736 3.72892C35.1558 2.58121 34.3811 1.50045 33.2358 1.30426Z" fill="#F50E30"/>
<path d="M-1 10.126V14.345C-1 14.9275 -0.527753 15.3998 0.0547514 15.3998H2.11792V9.07129H0.0547514C-0.527753 9.07129 -1 9.54354 -1 10.126Z" fill="#F50E30"/>
<path d="M6.33607 6.48835C6.33607 5.90676 5.8629 5.43359 5.28131 5.43359C4.69972 5.43359 4.22656 5.90676 4.22656 6.48835V17.9835C4.22656 18.5651 4.69972 19.0383 5.28131 19.0383C5.8629 19.0383 6.33607 18.5651 6.33607 17.9835V6.48835Z" fill="#F50E30"/>
<path d="M13.5569 22.7488C15.1911 22.7488 16.6621 21.5517 17.699 19.3779C18.6174 17.4525 19.1231 14.9161 19.1231 12.2358C19.1231 9.55555 18.6174 7.01916 17.699 5.09382C16.6621 2.92004 15.1911 1.7229 13.5569 1.7229C11.9424 1.7229 10.0654 2.91273 8.53583 4.90579C8.50124 4.95093 8.46749 4.99657 8.43359 5.04206C8.43859 5.84487 8.43359 19.4297 8.43359 19.4297C8.46749 19.4753 8.50124 19.5209 8.53583 19.566C10.0654 21.5589 11.9425 22.7488 13.5569 22.7488Z" fill="#F50E30"/>
<path d="M31.01 8.47288C29.5706 8.61035 28.305 9.43488 27.2484 10.9234C26.5791 11.8661 25.9995 13.0612 25.4763 14.577C24.1201 18.5065 23.9459 22.7253 24.9984 26.1518C25.0376 26.2794 25.0793 26.4065 25.1222 26.5332C22.7986 25.7335 20.1419 25.1991 17.4864 25.008C14.1611 24.7686 11.1098 25.0626 8.66181 25.8582C6.96471 26.4097 5.98063 28.1847 6.42152 29.8992C6.42883 29.9279 6.43748 29.9563 6.44725 29.9843L7.8564 34.0192C8.00428 34.4426 8.40368 34.7263 8.85216 34.7263H28.9887C29.4947 34.7263 29.9295 34.367 30.0246 33.8699L30.7167 30.2559C30.7245 30.2151 30.729 30.1745 30.732 30.1341C30.1592 30.7057 29.3692 31.0597 28.498 31.0597C26.7532 31.0597 25.3337 29.6402 25.3337 27.8954C25.3337 26.1507 26.7532 24.7312 28.498 24.7312C29.6918 24.7312 30.733 25.3959 31.2718 26.3745L33.9957 11.1991C34.1227 10.4691 33.9357 9.78956 33.4691 9.28553C32.9112 8.68278 31.9924 8.37887 31.01 8.47288Z" fill="#F50E30"/>
<path d="M28.4981 28.9506C29.0806 28.9506 29.5529 28.4783 29.5529 27.8958C29.5529 27.3133 29.0806 26.8411 28.4981 26.8411C27.9156 26.8411 27.4434 27.3133 27.4434 27.8958C27.4434 28.4783 27.9156 28.9506 28.4981 28.9506Z" fill="#F50E30"/>
</g>
<defs>
<clipPath id="clip0_470_1723">
<rect width="36" height="36" fill="white" transform="translate(-1)"/>
</clipPath>
</defs>
</svg>
