<svg width="60" height="60" viewBox="0 0 60 60" fill="none" xmlns="http://www.w3.org/2000/svg">
<path d="M45.3126 46.4119C46.5991 44.4683 47.1178 42.1162 46.7683 39.8118C46.4187 37.5074 45.2258 35.4149 43.4209 33.9403C41.616 32.4656 39.3277 31.7138 36.9999 31.8307C34.672 31.9476 32.4706 32.9249 30.8225 34.573C29.1744 36.2211 28.1971 38.4225 28.0802 40.7503C27.9633 43.0782 28.7151 45.3665 30.1898 47.1714C31.6645 48.9763 33.7569 50.1692 36.0613 50.5188C38.3657 50.8683 40.7178 50.3496 42.6614 49.0631L45.5489 51.9506C45.9025 52.2922 46.3762 52.4812 46.8678 52.4769C47.3594 52.4726 47.8297 52.2754 48.1773 51.9278C48.5249 51.5802 48.7221 51.1099 48.7264 50.6183C48.7307 50.1266 48.5417 49.653 48.2001 49.2994L45.3126 46.4119ZM31.8745 41.25C31.8745 40.1375 32.2044 39.05 32.8225 38.1249C33.4406 37.1999 34.3191 36.4789 35.3469 36.0532C36.3748 35.6274 37.5058 35.516 38.5969 35.7331C39.688 35.9501 40.6903 36.4859 41.477 37.2725C42.2637 38.0592 42.7994 39.0615 43.0164 40.1526C43.2335 41.2438 43.1221 42.3748 42.6963 43.4026C42.2706 44.4304 41.5496 45.3089 40.6246 45.927C39.6996 46.5451 38.612 46.875 37.4995 46.875C36.0077 46.875 34.5769 46.2824 33.522 45.2275C32.4672 44.1726 31.8745 42.7419 31.8745 41.25Z" fill="#F50E30"/>
<path d="M43.125 3.75H16.875C15.3832 3.75 13.9524 4.34263 12.8975 5.39752C11.8426 6.45242 11.25 7.88316 11.25 9.375V50.625C11.25 52.1168 11.8426 53.5476 12.8975 54.6025C13.9524 55.6574 15.3832 56.25 16.875 56.25H30C30.4973 56.25 30.9742 56.0525 31.3258 55.7008C31.6775 55.3492 31.875 54.8723 31.875 54.375C31.875 53.8777 31.6775 53.4008 31.3258 53.0492C30.9742 52.6975 30.4973 52.5 30 52.5H16.875C16.3777 52.5 15.9008 52.3025 15.5492 51.9508C15.1975 51.5992 15 51.1223 15 50.625V9.375C15 8.87772 15.1975 8.40081 15.5492 8.04918C15.9008 7.69754 16.3777 7.5 16.875 7.5H43.125C43.6223 7.5 44.0992 7.69754 44.4508 8.04918C44.8025 8.40081 45 8.87772 45 9.375V30C45 30.4973 45.1975 30.9742 45.5492 31.3258C45.9008 31.6775 46.3777 31.875 46.875 31.875C47.3723 31.875 47.8492 31.6775 48.2008 31.3258C48.5525 30.9742 48.75 30.4973 48.75 30V9.375C48.75 7.88316 48.1574 6.45242 47.1025 5.39752C46.0476 4.34263 44.6168 3.75 43.125 3.75Z" fill="#F50E30"/>
<path d="M22.5 16.875H37.5C37.9973 16.875 38.4742 16.6775 38.8258 16.3258C39.1775 15.9742 39.375 15.4973 39.375 15C39.375 14.5027 39.1775 14.0258 38.8258 13.6742C38.4742 13.3225 37.9973 13.125 37.5 13.125H22.5C22.0027 13.125 21.5258 13.3225 21.1742 13.6742C20.8225 14.0258 20.625 14.5027 20.625 15C20.625 15.4973 20.8225 15.9742 21.1742 16.3258C21.5258 16.6775 22.0027 16.875 22.5 16.875Z" fill="#F50E30"/>
<path d="M39.375 24.375C39.375 23.8777 39.1775 23.4008 38.8258 23.0492C38.4742 22.6975 37.9973 22.5 37.5 22.5H22.5C22.0027 22.5 21.5258 22.6975 21.1742 23.0492C20.8225 23.4008 20.625 23.8777 20.625 24.375C20.625 24.8723 20.8225 25.3492 21.1742 25.7008C21.5258 26.0525 22.0027 26.25 22.5 26.25H37.5C37.9973 26.25 38.4742 26.0525 38.8258 25.7008C39.1775 25.3492 39.375 24.8723 39.375 24.375Z" fill="#F50E30"/>
<path d="M22.5 31.875C22.0027 31.875 21.5258 32.0725 21.1742 32.4242C20.8225 32.7758 20.625 33.2527 20.625 33.75C20.625 34.2473 20.8225 34.7242 21.1742 35.0758C21.5258 35.4275 22.0027 35.625 22.5 35.625H24.375C24.8723 35.625 25.3492 35.4275 25.7008 35.0758C26.0525 34.7242 26.25 34.2473 26.25 33.75C26.25 33.2527 26.0525 32.7758 25.7008 32.4242C25.3492 32.0725 24.8723 31.875 24.375 31.875H22.5Z" fill="#F50E30"/>
</svg>
