<svg width="60" height="60" viewBox="0 0 60 60" fill="none" xmlns="http://www.w3.org/2000/svg">
<path d="M13.9459 20.6347C14.074 21.1364 14.4822 21.5625 15 21.5625C15.5178 21.5625 15.926 21.1364 16.0541 20.6347C16.2193 19.9878 16.5558 19.3909 17.0359 18.9109C17.5159 18.4308 18.1128 18.0943 18.7597 17.9291C19.2614 17.801 19.6875 17.3928 19.6875 16.875C19.6875 16.3572 19.2614 15.949 18.7597 15.8209C18.1128 15.6557 17.5159 15.3192 17.0359 14.8392C16.5558 14.3591 16.2193 13.7622 16.0541 13.1153C15.926 12.6136 15.5178 12.1875 15 12.1875C14.4822 12.1875 14.074 12.6136 13.9459 13.1153C13.7807 13.7622 13.4442 14.3591 12.9642 14.8392C12.4841 15.3192 11.8872 15.6557 11.2403 15.8209C10.7386 15.949 10.3125 16.3572 10.3125 16.875C10.3125 17.3928 10.7386 17.801 11.2403 17.9291C11.8872 18.0943 12.4841 18.4308 12.9642 18.9109C13.4442 19.3909 13.7807 19.9878 13.9459 20.6347ZM14.2869 16.1619C14.6657 15.7832 15.3343 15.7832 15.7131 16.1619C16.0918 16.5407 16.0918 17.2093 15.7131 17.5881C15.3343 17.9668 14.6657 17.9668 14.2869 17.5881C13.9082 17.2093 13.9082 16.5407 14.2869 16.1619Z" fill="#F50E30"/>
<path d="M43.9459 20.6347C44.074 21.1364 44.4822 21.5625 45 21.5625C45.5178 21.5625 45.926 21.1364 46.0541 20.6347C46.2193 19.9878 46.5558 19.3909 47.0359 18.9109C47.5159 18.4308 48.1128 18.0943 48.7597 17.9291C49.2614 17.801 49.6875 17.3928 49.6875 16.875C49.6875 16.3572 49.2614 15.949 48.7597 15.8209C48.1128 15.6557 47.5159 15.3192 47.0359 14.8392C46.5558 14.3591 46.2193 13.7622 46.0541 13.1153C45.926 12.6136 45.5178 12.1875 45 12.1875C44.4822 12.1875 44.074 12.6136 43.9459 13.1153C43.7807 13.7622 43.4442 14.3591 42.9641 14.8392C42.4841 15.3192 41.8872 15.6557 41.2403 15.8209C40.7386 15.949 40.3125 16.3572 40.3125 16.875C40.3125 17.3928 40.7386 17.801 41.2403 17.9291C41.8872 18.0943 42.4841 18.4308 42.9641 18.9109C43.4442 19.3909 43.7807 19.9878 43.9459 20.6347ZM44.2869 16.1619C44.6657 15.7832 45.3343 15.7832 45.7131 16.1619C46.0918 16.5407 46.0918 17.2093 45.7131 17.5881C45.3343 17.9668 44.6657 17.9668 44.2869 17.5881C43.9082 17.2093 43.9082 16.5407 44.2869 16.1619Z" fill="#F50E30"/>
<path d="M28.9459 12.1972C29.074 12.6989 29.4822 13.125 30 13.125C30.5178 13.125 30.926 12.6989 31.0541 12.1972C31.2193 11.5503 31.5558 10.9534 32.0359 10.4733C32.5159 9.99325 33.1128 9.65678 33.7597 9.49157C34.2614 9.36346 34.6875 8.95527 34.6875 8.4375C34.6875 7.91973 34.2614 7.51154 33.7597 7.38343C33.1128 7.21822 32.5159 6.88175 32.0359 6.40165C31.5558 5.92155 31.2193 5.32468 31.0541 4.67779C30.926 4.17613 30.5178 3.75 30 3.75C29.4822 3.75 29.074 4.17613 28.9459 4.67779C28.7807 5.32468 28.4442 5.92155 27.9641 6.40165C27.4841 6.88175 26.8872 7.21822 26.2403 7.38343C25.7386 7.51154 25.3125 7.91973 25.3125 8.4375C25.3125 8.95527 25.7386 9.36346 26.2403 9.49157C26.8872 9.65678 27.4841 9.99325 27.9641 10.4733C28.4442 10.9534 28.7807 11.5503 28.9459 12.1972ZM29.2869 7.72441C29.6657 7.34565 30.3343 7.34565 30.7131 7.72441C31.0918 8.10317 31.0918 8.77183 30.7131 9.15059C30.3343 9.52935 29.6657 9.52935 29.2869 9.15059C28.9082 8.77184 28.9082 8.10316 29.2869 7.72441Z" fill="#F50E30"/>
<path d="M13.6375 41.4028L7.07505 37.1129C6.93779 37.0227 6.77926 36.9702 6.61533 36.9606C6.4514 36.951 6.28782 36.9846 6.14096 37.0581C5.9941 37.1315 5.86912 37.2423 5.77852 37.3793C5.68793 37.5162 5.6349 37.6746 5.62473 37.8385L5.36317 42.0132C5.3525 42.1831 5.38831 42.3527 5.46677 42.5039C5.54522 42.655 5.66335 42.7819 5.80848 42.871L9.55848 45.1716C9.71493 45.2673 9.89601 45.3151 10.0793 45.3089C10.2626 45.3027 10.4401 45.2429 10.5897 45.1369L13.6638 42.9516C13.7882 42.8632 13.8892 42.7457 13.9579 42.6093C14.0266 42.473 14.0609 42.3219 14.058 42.1693C14.055 42.0167 14.0148 41.8671 13.9409 41.7335C13.867 41.5999 13.7616 41.4864 13.6338 41.4028H13.6375ZM10.0122 43.2488L7.27098 41.5679L7.39755 39.5625L11.4607 42.2185L10.0122 43.2488Z" fill="#F50E30"/>
<path d="M45.9377 42.1687C45.9347 42.3215 45.9691 42.4727 46.0379 42.6091C46.1067 42.7455 46.2078 42.8631 46.3324 42.9515L49.4064 45.1368C49.5561 45.2429 49.7336 45.3026 49.9169 45.3088C50.1002 45.315 50.2812 45.2672 50.4377 45.1715L54.1877 42.8709C54.3328 42.7818 54.4509 42.6549 54.5294 42.5038C54.6079 42.3527 54.6437 42.183 54.633 42.0131L54.3752 37.8384C54.3648 37.6748 54.3118 37.5168 54.2213 37.3801C54.1308 37.2434 54.006 37.1328 53.8595 37.0594C53.7129 36.986 53.5496 36.9522 53.386 36.9616C53.2223 36.971 53.064 37.0231 52.9267 37.1128L46.3642 41.4028C46.2361 41.486 46.1303 41.5993 46.0559 41.7328C45.9816 41.8663 45.941 42.0159 45.9377 42.1687ZM52.6024 39.5625L52.7289 41.5668L49.9877 43.2487L48.5392 42.2175L52.6024 39.5625Z" fill="#F50E30"/>
<mask id="path-6-outside-1_601_368" maskUnits="userSpaceOnUse" x="-0.0605469" y="21.5" width="60" height="36" fill="black">
<rect x="-0.0605469" y="21.5" width="60" height="36"/>
<path d="M57.1872 32.8125C57.3105 32.8125 57.4326 32.7881 57.5465 32.7408C57.6604 32.6935 57.7639 32.6242 57.8509 32.5369L58.7884 31.5994C58.9271 31.4602 59.0185 31.281 59.0498 31.087C59.0811 30.893 59.0507 30.6942 58.9628 30.5184L58.0253 28.6434C57.9475 28.4877 57.8279 28.3568 57.6799 28.2652C57.5318 28.1736 57.3612 28.1251 57.1872 28.125H53.4372C53.1886 28.1251 52.9501 28.2239 52.7744 28.3997L51.8369 29.3372C51.6977 29.4762 51.6058 29.6555 51.5742 29.8497C51.5425 30.0438 51.5728 30.243 51.6606 30.4191L52.3891 31.875L52.0309 32.5913L50.6931 29.9156C49.7426 28.0139 48.3111 26.394 46.5409 25.2166C44.7706 24.0392 42.7232 23.3454 40.6019 23.2041L30.0616 22.5C30.0203 22.5 29.9791 22.5 29.9378 22.5L19.3975 23.2022C16.9118 23.3649 14.5363 24.2882 12.5931 25.8469C11.2183 26.9516 10.0973 28.3393 9.30625 29.9156L7.96844 32.5913L7.61032 31.875L8.34344 30.4191C8.43129 30.243 8.46154 30.0438 8.4299 29.8497C8.39827 29.6555 8.30636 29.4762 8.16719 29.3372L7.22969 28.3997C7.1421 28.3121 7.03801 28.2427 6.92344 28.1955C6.80886 28.1484 6.68608 28.1244 6.56219 28.125H2.81219C2.63813 28.1251 2.46754 28.1736 2.31951 28.2652C2.17148 28.3568 2.05187 28.4877 1.97407 28.6434L1.03657 30.5184C0.950005 30.6935 0.920281 30.8912 0.951543 31.084C0.982804 31.2768 1.07349 31.455 1.21094 31.5938L2.14844 32.5313C2.23504 32.6196 2.33828 32.69 2.4522 32.7382C2.56612 32.7865 2.68847 32.8117 2.81219 32.8125H5.98282L6.42907 33.7059L4.26813 34.7812C4.12255 34.8549 3.99828 34.9646 3.90719 35.1L2.03219 37.9125C1.92887 38.068 1.87406 38.2508 1.87469 38.4375V50.3869C1.876 50.7848 1.96001 51.1782 2.1214 51.5419C2.28279 51.9057 2.51803 52.232 2.81219 52.5V54.3178C2.80544 55.0711 3.09777 55.7962 3.62504 56.3342C4.1523 56.8722 4.87145 57.1791 5.62469 57.1875H9.37469C10.0033 57.1824 10.6123 56.9675 11.1048 56.5769C11.5974 56.1862 11.9453 55.6422 12.0934 55.0313L14.9059 55.3125C14.9378 55.3125 14.9688 55.3172 14.9997 55.3172C15.1267 55.3173 15.2524 55.2915 15.3691 55.2413L18.4169 53.9353L18.8481 54.7988C18.9267 54.9537 19.0467 55.0838 19.1949 55.1745C19.343 55.2653 19.5135 55.313 19.6872 55.3125H40.3122C40.4872 55.3135 40.659 55.2654 40.8081 55.1738C40.9572 55.0822 41.0777 54.9506 41.1559 54.7941L41.5872 53.9306L44.635 55.2366C44.7502 55.2862 44.8743 55.312 44.9997 55.3125C45.0306 55.3125 45.0616 55.3125 45.0934 55.3078L47.8928 55.0266C48.0325 55.6448 48.3799 56.1965 48.877 56.5897C49.3741 56.9829 49.9909 57.1939 50.6247 57.1875H54.3747C55.1279 57.1791 55.8471 56.8722 56.3743 56.3342C56.9016 55.7962 57.1939 55.0711 57.1872 54.3178V52.5C57.4815 52.2321 57.7168 51.9058 57.8782 51.5421C58.0396 51.1783 58.1236 50.7849 58.1247 50.3869V38.4375C58.1244 38.2524 58.0696 38.0714 57.9672 37.9172L56.0922 35.1047C56.0011 34.9693 55.8768 34.8596 55.7313 34.7859L53.575 33.7059L54.0166 32.8125H57.1872ZM13.7659 27.3131C15.4095 25.994 17.4192 25.2127 19.5222 25.0753L29.9997 24.375L40.4772 25.0734C42.272 25.1936 44.0043 25.781 45.5021 26.7772C46.9999 27.7735 48.2112 29.144 49.0159 30.7528L50.0444 32.8125H9.95407L10.9853 30.75C11.6508 29.4155 12.5998 28.2426 13.7659 27.3131ZM49.2981 34.6875L43.5709 40.4156L37.3684 42.1875H33.9709L32.2938 41.3438C32.1632 41.2805 32.0197 41.2484 31.8747 41.25H28.1247C27.9796 41.2484 27.8362 41.2805 27.7056 41.3438L26.0284 42.1875H22.6309L16.4434 40.4184L11.0097 34.6875H49.2981ZM5.98563 30.9375H3.20125L3.01375 30.75L3.38875 30H6.17407L6.36157 30.1875L5.98563 30.9375ZM4.87469 50.0625C4.75298 50.2248 4.68719 50.4222 4.68719 50.625V51.5709L4.17719 51.2213C4.04366 51.1272 3.93498 51.0021 3.86051 50.8568C3.78604 50.7115 3.74801 50.5502 3.74969 50.3869V44.4506L6.79657 47.4975L4.87469 50.0625ZM9.37469 55.3125H5.62469C5.36864 55.3044 5.12622 55.1952 4.95051 55.0088C4.7748 54.8223 4.68012 54.5739 4.68719 54.3178V53.8491L4.87469 53.9756C4.94877 54.0856 5.04579 54.1783 5.15907 54.2472C5.27235 54.3161 5.39921 54.3597 5.53094 54.375L10.1566 54.8381C10.0794 54.9789 9.96647 55.0969 9.82922 55.1801C9.69196 55.2634 9.5352 55.3091 9.37469 55.3125ZM38.8066 50.7009L38.0678 52.4241L39.8566 53.1909L39.7328 53.4375H20.2666L20.1428 53.1909L21.9316 52.4241L21.1928 50.7009L14.8525 53.4197L6.56219 52.5938V50.9372L8.75219 48.0159L19.5447 49.6763C19.5918 49.6838 19.6395 49.6875 19.6872 49.6875H40.3122C40.3596 49.6875 40.4069 49.6837 40.4538 49.6763L51.2463 48.0169L53.4372 50.9372V52.5938L45.1469 53.4225L38.8066 50.7009ZM55.1247 50.0625L53.2019 47.4984L56.2497 44.4506V50.3869C56.2513 50.5503 56.2132 50.7116 56.1386 50.857C56.0639 51.0024 55.955 51.1274 55.8213 51.2213L55.3122 51.5709V50.625C55.3122 50.4222 55.2464 50.2248 55.1247 50.0625ZM54.3747 55.3125H50.6247C50.4637 55.3086 50.3066 55.2622 50.1693 55.1781C50.032 55.094 49.9194 54.9751 49.8428 54.8334L54.4684 54.375C54.6001 54.3599 54.7269 54.3165 54.8402 54.2477C54.9535 54.1789 55.0506 54.0864 55.1247 53.9766L55.3122 53.85V54.3188C55.319 54.5747 55.2242 54.8229 55.0485 55.0091C54.8728 55.1953 54.6306 55.3044 54.3747 55.3125ZM56.2497 38.7188V41.7966L52.0534 45.9928L40.24 47.8125H19.7594L7.94688 45.9956L3.74969 41.7994V38.7188L5.32938 36.3488L8.50094 34.7634L15.2566 41.8884C15.3724 42.0098 15.5183 42.0984 15.6794 42.1453L22.2419 44.0203C22.3255 44.0461 22.4122 44.0603 22.4997 44.0625H26.2497C26.3948 44.0641 26.5382 44.032 26.6688 43.9688L28.3459 43.125H31.6534L33.3306 43.9688C33.4612 44.032 33.6046 44.0641 33.7497 44.0625H37.4997C37.5868 44.0624 37.6736 44.0504 37.7575 44.0269L44.32 42.1519C44.473 42.1077 44.6124 42.0254 44.725 41.9128L51.7497 34.89L54.6738 36.3516L56.2497 38.7188ZM53.8253 30H56.6078L56.9828 30.75L56.7953 30.9375H54.0166L53.6416 30.1875L53.8253 30Z"/>
</mask>
<path d="M57.1872 32.8125C57.3105 32.8125 57.4326 32.7881 57.5465 32.7408C57.6604 32.6935 57.7639 32.6242 57.8509 32.5369L58.7884 31.5994C58.9271 31.4602 59.0185 31.281 59.0498 31.087C59.0811 30.893 59.0507 30.6942 58.9628 30.5184L58.0253 28.6434C57.9475 28.4877 57.8279 28.3568 57.6799 28.2652C57.5318 28.1736 57.3612 28.1251 57.1872 28.125H53.4372C53.1886 28.1251 52.9501 28.2239 52.7744 28.3997L51.8369 29.3372C51.6977 29.4762 51.6058 29.6555 51.5742 29.8497C51.5425 30.0438 51.5728 30.243 51.6606 30.4191L52.3891 31.875L52.0309 32.5913L50.6931 29.9156C49.7426 28.0139 48.3111 26.394 46.5409 25.2166C44.7706 24.0392 42.7232 23.3454 40.6019 23.2041L30.0616 22.5C30.0203 22.5 29.9791 22.5 29.9378 22.5L19.3975 23.2022C16.9118 23.3649 14.5363 24.2882 12.5931 25.8469C11.2183 26.9516 10.0973 28.3393 9.30625 29.9156L7.96844 32.5913L7.61032 31.875L8.34344 30.4191C8.43129 30.243 8.46154 30.0438 8.4299 29.8497C8.39827 29.6555 8.30636 29.4762 8.16719 29.3372L7.22969 28.3997C7.1421 28.3121 7.03801 28.2427 6.92344 28.1955C6.80886 28.1484 6.68608 28.1244 6.56219 28.125H2.81219C2.63813 28.1251 2.46754 28.1736 2.31951 28.2652C2.17148 28.3568 2.05187 28.4877 1.97407 28.6434L1.03657 30.5184C0.950005 30.6935 0.920281 30.8912 0.951543 31.084C0.982804 31.2768 1.07349 31.455 1.21094 31.5938L2.14844 32.5313C2.23504 32.6196 2.33828 32.69 2.4522 32.7382C2.56612 32.7865 2.68847 32.8117 2.81219 32.8125H5.98282L6.42907 33.7059L4.26813 34.7812C4.12255 34.8549 3.99828 34.9646 3.90719 35.1L2.03219 37.9125C1.92887 38.068 1.87406 38.2508 1.87469 38.4375V50.3869C1.876 50.7848 1.96001 51.1782 2.1214 51.5419C2.28279 51.9057 2.51803 52.232 2.81219 52.5V54.3178C2.80544 55.0711 3.09777 55.7962 3.62504 56.3342C4.1523 56.8722 4.87145 57.1791 5.62469 57.1875H9.37469C10.0033 57.1824 10.6123 56.9675 11.1048 56.5769C11.5974 56.1862 11.9453 55.6422 12.0934 55.0313L14.9059 55.3125C14.9378 55.3125 14.9688 55.3172 14.9997 55.3172C15.1267 55.3173 15.2524 55.2915 15.3691 55.2413L18.4169 53.9353L18.8481 54.7988C18.9267 54.9537 19.0467 55.0838 19.1949 55.1745C19.343 55.2653 19.5135 55.313 19.6872 55.3125H40.3122C40.4872 55.3135 40.659 55.2654 40.8081 55.1738C40.9572 55.0822 41.0777 54.9506 41.1559 54.7941L41.5872 53.9306L44.635 55.2366C44.7502 55.2862 44.8743 55.312 44.9997 55.3125C45.0306 55.3125 45.0616 55.3125 45.0934 55.3078L47.8928 55.0266C48.0325 55.6448 48.3799 56.1965 48.877 56.5897C49.3741 56.9829 49.9909 57.1939 50.6247 57.1875H54.3747C55.1279 57.1791 55.8471 56.8722 56.3743 56.3342C56.9016 55.7962 57.1939 55.0711 57.1872 54.3178V52.5C57.4815 52.2321 57.7168 51.9058 57.8782 51.5421C58.0396 51.1783 58.1236 50.7849 58.1247 50.3869V38.4375C58.1244 38.2524 58.0696 38.0714 57.9672 37.9172L56.0922 35.1047C56.0011 34.9693 55.8768 34.8596 55.7313 34.7859L53.575 33.7059L54.0166 32.8125H57.1872ZM13.7659 27.3131C15.4095 25.994 17.4192 25.2127 19.5222 25.0753L29.9997 24.375L40.4772 25.0734C42.272 25.1936 44.0043 25.781 45.5021 26.7772C46.9999 27.7735 48.2112 29.144 49.0159 30.7528L50.0444 32.8125H9.95407L10.9853 30.75C11.6508 29.4155 12.5998 28.2426 13.7659 27.3131ZM49.2981 34.6875L43.5709 40.4156L37.3684 42.1875H33.9709L32.2938 41.3438C32.1632 41.2805 32.0197 41.2484 31.8747 41.25H28.1247C27.9796 41.2484 27.8362 41.2805 27.7056 41.3438L26.0284 42.1875H22.6309L16.4434 40.4184L11.0097 34.6875H49.2981ZM5.98563 30.9375H3.20125L3.01375 30.75L3.38875 30H6.17407L6.36157 30.1875L5.98563 30.9375ZM4.87469 50.0625C4.75298 50.2248 4.68719 50.4222 4.68719 50.625V51.5709L4.17719 51.2213C4.04366 51.1272 3.93498 51.0021 3.86051 50.8568C3.78604 50.7115 3.74801 50.5502 3.74969 50.3869V44.4506L6.79657 47.4975L4.87469 50.0625ZM9.37469 55.3125H5.62469C5.36864 55.3044 5.12622 55.1952 4.95051 55.0088C4.7748 54.8223 4.68012 54.5739 4.68719 54.3178V53.8491L4.87469 53.9756C4.94877 54.0856 5.04579 54.1783 5.15907 54.2472C5.27235 54.3161 5.39921 54.3597 5.53094 54.375L10.1566 54.8381C10.0794 54.9789 9.96647 55.0969 9.82922 55.1801C9.69196 55.2634 9.5352 55.3091 9.37469 55.3125ZM38.8066 50.7009L38.0678 52.4241L39.8566 53.1909L39.7328 53.4375H20.2666L20.1428 53.1909L21.9316 52.4241L21.1928 50.7009L14.8525 53.4197L6.56219 52.5938V50.9372L8.75219 48.0159L19.5447 49.6763C19.5918 49.6838 19.6395 49.6875 19.6872 49.6875H40.3122C40.3596 49.6875 40.4069 49.6837 40.4538 49.6763L51.2463 48.0169L53.4372 50.9372V52.5938L45.1469 53.4225L38.8066 50.7009ZM55.1247 50.0625L53.2019 47.4984L56.2497 44.4506V50.3869C56.2513 50.5503 56.2132 50.7116 56.1386 50.857C56.0639 51.0024 55.955 51.1274 55.8213 51.2213L55.3122 51.5709V50.625C55.3122 50.4222 55.2464 50.2248 55.1247 50.0625ZM54.3747 55.3125H50.6247C50.4637 55.3086 50.3066 55.2622 50.1693 55.1781C50.032 55.094 49.9194 54.9751 49.8428 54.8334L54.4684 54.375C54.6001 54.3599 54.7269 54.3165 54.8402 54.2477C54.9535 54.1789 55.0506 54.0864 55.1247 53.9766L55.3122 53.85V54.3188C55.319 54.5747 55.2242 54.8229 55.0485 55.0091C54.8728 55.1953 54.6306 55.3044 54.3747 55.3125ZM56.2497 38.7188V41.7966L52.0534 45.9928L40.24 47.8125H19.7594L7.94688 45.9956L3.74969 41.7994V38.7188L5.32938 36.3488L8.50094 34.7634L15.2566 41.8884C15.3724 42.0098 15.5183 42.0984 15.6794 42.1453L22.2419 44.0203C22.3255 44.0461 22.4122 44.0603 22.4997 44.0625H26.2497C26.3948 44.0641 26.5382 44.032 26.6688 43.9688L28.3459 43.125H31.6534L33.3306 43.9688C33.4612 44.032 33.6046 44.0641 33.7497 44.0625H37.4997C37.5868 44.0624 37.6736 44.0504 37.7575 44.0269L44.32 42.1519C44.473 42.1077 44.6124 42.0254 44.725 41.9128L51.7497 34.89L54.6738 36.3516L56.2497 38.7188ZM53.8253 30H56.6078L56.9828 30.75L56.7953 30.9375H54.0166L53.6416 30.1875L53.8253 30Z" fill="#F50E30"/>
<path d="M57.1872 32.8125C57.3105 32.8125 57.4326 32.7881 57.5465 32.7408C57.6604 32.6935 57.7639 32.6242 57.8509 32.5369L58.7884 31.5994C58.9271 31.4602 59.0185 31.281 59.0498 31.087C59.0811 30.893 59.0507 30.6942 58.9628 30.5184L58.0253 28.6434C57.9475 28.4877 57.8279 28.3568 57.6799 28.2652C57.5318 28.1736 57.3612 28.1251 57.1872 28.125H53.4372C53.1886 28.1251 52.9501 28.2239 52.7744 28.3997L51.8369 29.3372C51.6977 29.4762 51.6058 29.6555 51.5742 29.8497C51.5425 30.0438 51.5728 30.243 51.6606 30.4191L52.3891 31.875L52.0309 32.5913L50.6931 29.9156C49.7426 28.0139 48.3111 26.394 46.5409 25.2166C44.7706 24.0392 42.7232 23.3454 40.6019 23.2041L30.0616 22.5C30.0203 22.5 29.9791 22.5 29.9378 22.5L19.3975 23.2022C16.9118 23.3649 14.5363 24.2882 12.5931 25.8469C11.2183 26.9516 10.0973 28.3393 9.30625 29.9156L7.96844 32.5913L7.61032 31.875L8.34344 30.4191C8.43129 30.243 8.46154 30.0438 8.4299 29.8497C8.39827 29.6555 8.30636 29.4762 8.16719 29.3372L7.22969 28.3997C7.1421 28.3121 7.03801 28.2427 6.92344 28.1955C6.80886 28.1484 6.68608 28.1244 6.56219 28.125H2.81219C2.63813 28.1251 2.46754 28.1736 2.31951 28.2652C2.17148 28.3568 2.05187 28.4877 1.97407 28.6434L1.03657 30.5184C0.950005 30.6935 0.920281 30.8912 0.951543 31.084C0.982804 31.2768 1.07349 31.455 1.21094 31.5938L2.14844 32.5313C2.23504 32.6196 2.33828 32.69 2.4522 32.7382C2.56612 32.7865 2.68847 32.8117 2.81219 32.8125H5.98282L6.42907 33.7059L4.26813 34.7812C4.12255 34.8549 3.99828 34.9646 3.90719 35.1L2.03219 37.9125C1.92887 38.068 1.87406 38.2508 1.87469 38.4375V50.3869C1.876 50.7848 1.96001 51.1782 2.1214 51.5419C2.28279 51.9057 2.51803 52.232 2.81219 52.5V54.3178C2.80544 55.0711 3.09777 55.7962 3.62504 56.3342C4.1523 56.8722 4.87145 57.1791 5.62469 57.1875H9.37469C10.0033 57.1824 10.6123 56.9675 11.1048 56.5769C11.5974 56.1862 11.9453 55.6422 12.0934 55.0313L14.9059 55.3125C14.9378 55.3125 14.9688 55.3172 14.9997 55.3172C15.1267 55.3173 15.2524 55.2915 15.3691 55.2413L18.4169 53.9353L18.8481 54.7988C18.9267 54.9537 19.0467 55.0838 19.1949 55.1745C19.343 55.2653 19.5135 55.313 19.6872 55.3125H40.3122C40.4872 55.3135 40.659 55.2654 40.8081 55.1738C40.9572 55.0822 41.0777 54.9506 41.1559 54.7941L41.5872 53.9306L44.635 55.2366C44.7502 55.2862 44.8743 55.312 44.9997 55.3125C45.0306 55.3125 45.0616 55.3125 45.0934 55.3078L47.8928 55.0266C48.0325 55.6448 48.3799 56.1965 48.877 56.5897C49.3741 56.9829 49.9909 57.1939 50.6247 57.1875H54.3747C55.1279 57.1791 55.8471 56.8722 56.3743 56.3342C56.9016 55.7962 57.1939 55.0711 57.1872 54.3178V52.5C57.4815 52.2321 57.7168 51.9058 57.8782 51.5421C58.0396 51.1783 58.1236 50.7849 58.1247 50.3869V38.4375C58.1244 38.2524 58.0696 38.0714 57.9672 37.9172L56.0922 35.1047C56.0011 34.9693 55.8768 34.8596 55.7313 34.7859L53.575 33.7059L54.0166 32.8125H57.1872ZM13.7659 27.3131C15.4095 25.994 17.4192 25.2127 19.5222 25.0753L29.9997 24.375L40.4772 25.0734C42.272 25.1936 44.0043 25.781 45.5021 26.7772C46.9999 27.7735 48.2112 29.144 49.0159 30.7528L50.0444 32.8125H9.95407L10.9853 30.75C11.6508 29.4155 12.5998 28.2426 13.7659 27.3131ZM49.2981 34.6875L43.5709 40.4156L37.3684 42.1875H33.9709L32.2938 41.3438C32.1632 41.2805 32.0197 41.2484 31.8747 41.25H28.1247C27.9796 41.2484 27.8362 41.2805 27.7056 41.3438L26.0284 42.1875H22.6309L16.4434 40.4184L11.0097 34.6875H49.2981ZM5.98563 30.9375H3.20125L3.01375 30.75L3.38875 30H6.17407L6.36157 30.1875L5.98563 30.9375ZM4.87469 50.0625C4.75298 50.2248 4.68719 50.4222 4.68719 50.625V51.5709L4.17719 51.2213C4.04366 51.1272 3.93498 51.0021 3.86051 50.8568C3.78604 50.7115 3.74801 50.5502 3.74969 50.3869V44.4506L6.79657 47.4975L4.87469 50.0625ZM9.37469 55.3125H5.62469C5.36864 55.3044 5.12622 55.1952 4.95051 55.0088C4.7748 54.8223 4.68012 54.5739 4.68719 54.3178V53.8491L4.87469 53.9756C4.94877 54.0856 5.04579 54.1783 5.15907 54.2472C5.27235 54.3161 5.39921 54.3597 5.53094 54.375L10.1566 54.8381C10.0794 54.9789 9.96647 55.0969 9.82922 55.1801C9.69196 55.2634 9.5352 55.3091 9.37469 55.3125ZM38.8066 50.7009L38.0678 52.4241L39.8566 53.1909L39.7328 53.4375H20.2666L20.1428 53.1909L21.9316 52.4241L21.1928 50.7009L14.8525 53.4197L6.56219 52.5938V50.9372L8.75219 48.0159L19.5447 49.6763C19.5918 49.6838 19.6395 49.6875 19.6872 49.6875H40.3122C40.3596 49.6875 40.4069 49.6837 40.4538 49.6763L51.2463 48.0169L53.4372 50.9372V52.5938L45.1469 53.4225L38.8066 50.7009ZM55.1247 50.0625L53.2019 47.4984L56.2497 44.4506V50.3869C56.2513 50.5503 56.2132 50.7116 56.1386 50.857C56.0639 51.0024 55.955 51.1274 55.8213 51.2213L55.3122 51.5709V50.625C55.3122 50.4222 55.2464 50.2248 55.1247 50.0625ZM54.3747 55.3125H50.6247C50.4637 55.3086 50.3066 55.2622 50.1693 55.1781C50.032 55.094 49.9194 54.9751 49.8428 54.8334L54.4684 54.375C54.6001 54.3599 54.7269 54.3165 54.8402 54.2477C54.9535 54.1789 55.0506 54.0864 55.1247 53.9766L55.3122 53.85V54.3188C55.319 54.5747 55.2242 54.8229 55.0485 55.0091C54.8728 55.1953 54.6306 55.3044 54.3747 55.3125ZM56.2497 38.7188V41.7966L52.0534 45.9928L40.24 47.8125H19.7594L7.94688 45.9956L3.74969 41.7994V38.7188L5.32938 36.3488L8.50094 34.7634L15.2566 41.8884C15.3724 42.0098 15.5183 42.0984 15.6794 42.1453L22.2419 44.0203C22.3255 44.0461 22.4122 44.0603 22.4997 44.0625H26.2497C26.3948 44.0641 26.5382 44.032 26.6688 43.9688L28.3459 43.125H31.6534L33.3306 43.9688C33.4612 44.032 33.6046 44.0641 33.7497 44.0625H37.4997C37.5868 44.0624 37.6736 44.0504 37.7575 44.0269L44.32 42.1519C44.473 42.1077 44.6124 42.0254 44.725 41.9128L51.7497 34.89L54.6738 36.3516L56.2497 38.7188ZM53.8253 30H56.6078L56.9828 30.75L56.7953 30.9375H54.0166L53.6416 30.1875L53.8253 30Z" stroke="#F50E30" stroke-width="0.6" stroke-linejoin="round" mask="url(#path-6-outside-1_601_368)"/>
<path d="M29.0625 44.999C29.0625 45.5168 29.4822 45.9365 30 45.9365C30.5178 45.9365 30.9375 45.5168 30.9375 44.999C30.9375 44.4813 30.5178 44.0615 30 44.0615C29.4822 44.0615 29.0625 44.4813 29.0625 44.999Z" fill="#F50E30"/>
</svg>
