<svg width="42" height="32" viewBox="0 0 42 32" fill="none" xmlns="http://www.w3.org/2000/svg">
<path d="M40.8125 9.4999H35.9244L34.6245 6.1199C33.2724 2.6359 29.8925 0.399902 26.1484 0.399902H15.8524C12.1084 0.399902 8.78044 2.6359 7.37644 6.1199L6.02444 9.4999H1.13644C0.616438 9.4999 0.148438 9.9159 0.148438 10.4879C0.148438 10.5399 0.148438 10.6439 0.200438 10.6959L0.668438 12.6719C0.772438 13.0879 1.18844 13.3999 1.60444 13.3999H3.32044C2.17644 14.3879 1.50044 15.7919 1.50044 17.2999V21.1999C1.50044 22.4479 1.96844 23.6439 2.80044 24.6319V28.9999C2.80044 30.4559 3.94444 31.5999 5.40044 31.5999H8.00044C9.45644 31.5999 10.6004 30.4559 10.6004 28.9999V26.3999H31.4004V28.9999C31.4004 30.4559 32.5444 31.5999 34.0005 31.5999H36.6005C38.0565 31.5999 39.2005 30.4559 39.2005 28.9999V24.5799C40.0325 23.6439 40.5005 22.4479 40.5005 21.1479V17.2479C40.5005 15.7399 39.8245 14.3359 38.6805 13.3479H40.2925C40.7605 13.3479 41.1245 13.0359 41.2285 12.6199L41.6965 10.6439C41.8005 10.1239 41.4885 9.6039 40.9685 9.4479C40.9685 9.4999 40.9165 9.4999 40.8125 9.4999ZM12.2124 8.0439C12.7844 6.5359 14.2404 5.5999 15.8524 5.5999H26.1484C27.7604 5.5999 29.2164 6.5879 29.7885 8.0439L31.4004 12.0999H10.6004L12.2124 8.0439ZM8.00044 21.1999C6.64844 21.3039 5.50444 20.2639 5.40044 18.9119C5.40044 18.8079 5.40044 18.7039 5.40044 18.5999C5.29644 17.2479 6.33644 16.1039 7.68844 15.9999H8.00044C9.56044 15.9999 11.9004 18.3399 11.9004 19.8999C11.9004 21.4599 9.56044 21.1999 8.00044 21.1999ZM34.0005 21.1999C32.4404 21.1999 30.1004 21.4599 30.1004 19.8999C30.1004 18.3399 32.4404 15.9999 34.0005 15.9999C35.3525 15.8959 36.4965 16.9359 36.6005 18.2879V18.5999C36.7045 19.9519 35.6645 21.0959 34.3125 21.1999C34.2085 21.1999 34.1045 21.1999 34.0005 21.1999Z" fill="#fff"/>
</svg>
