<svg width="36" height="36" viewBox="0 0 36 36" fill="none" xmlns="http://www.w3.org/2000/svg">
<path fill-rule="evenodd" clip-rule="evenodd" d="M18 36C27.9411 36 36 27.9411 36 18C36 8.05889 27.9411 0 18 0C8.05889 0 0 8.05889 0 18C0 27.9411 8.05889 36 18 36ZM25.1145 10.4374C23.2622 8.58276 20.7986 7.56097 18.174 7.56C12.7662 7.56 8.36446 11.9611 8.36251 17.3708C8.36187 19.1001 8.81363 20.7881 9.67205 22.2757L8.28 27.36L13.4812 25.9958C14.9142 26.7776 16.5279 27.1894 18.1697 27.1901H18.1736C23.581 27.1901 27.9828 22.7884 27.9851 17.379C27.9867 14.7569 26.9672 12.2921 25.1145 10.4374ZM22.6471 19.4252C22.4019 19.3024 21.1968 18.7095 20.9718 18.6277C20.7473 18.5458 20.5836 18.5049 20.4202 18.7504C20.2568 18.996 19.787 19.5479 19.644 19.7116C19.5009 19.8753 19.3579 19.8956 19.1129 19.7729C19.0729 19.7528 19.0182 19.7291 18.9507 19.6998C18.6055 19.5501 17.9246 19.2548 17.1414 18.556C16.4127 17.9058 15.9206 17.103 15.7775 16.8578C15.6345 16.6123 15.7621 16.4797 15.8849 16.3575C15.9585 16.2842 16.043 16.1812 16.1275 16.0783C16.1697 16.027 16.2118 15.9756 16.2526 15.928C16.3564 15.8067 16.4016 15.7146 16.4629 15.5898C16.4739 15.5674 16.4853 15.5439 16.4978 15.5191C16.5796 15.3554 16.5387 15.2123 16.4775 15.0896C16.4366 15.0076 16.2042 14.442 15.9935 13.9292C15.8888 13.6742 15.7894 13.4323 15.7216 13.2693C15.5458 12.8473 15.3678 12.8484 15.2249 12.8493C15.2059 12.8494 15.1875 12.8495 15.1699 12.8486C15.0272 12.8414 14.8635 12.8401 14.7001 12.8401C14.5367 12.8401 14.2712 12.9013 14.0463 13.1469C14.0318 13.1627 14.0156 13.18 13.998 13.1988C13.7426 13.4715 13.1882 14.0633 13.1882 15.1921C13.1882 16.3958 14.0623 17.5589 14.1885 17.7268L14.1894 17.728C14.1974 17.7386 14.2116 17.7591 14.232 17.7884C14.5246 18.2082 16.0781 20.4369 18.3773 21.4298C18.9624 21.6825 19.4187 21.8331 19.7749 21.946C20.3623 22.1327 20.8966 22.1065 21.3192 22.0433C21.7903 21.9729 22.7695 21.4504 22.9738 20.8778C23.1781 20.3052 23.1781 19.8141 23.1169 19.7119C23.0675 19.6293 22.9516 19.5732 22.7799 19.4902C22.7388 19.4704 22.6944 19.4489 22.6471 19.4252Z" fill="black"/>
</svg>
